<svg xmlns="http://www.w3.org/2000/svg" width="80" height="27" viewBox="0 0 80 27">
  <defs>
    <style>
      .cls-1 {
        fill: #ee9c70;
        fill-rule: evenodd;
      }
    </style>
  </defs>
  <path id="news_new_title.svg" data-name="news/new_title.svg" class="cls-1" d="M1204.51,687.446a3.324,3.324,0,0,0,1.61-.87,2.452,2.452,0,0,0,.67-1.85,2.183,2.183,0,0,0-.72-1.632,2.958,2.958,0,0,0-2.1-.689,6.78,6.78,0,0,0-4.45,1.994,26.2,26.2,0,0,0-4.41,5.369,66.98,66.98,0,0,0-4.23,7.817q-2.055,4.442-3.94,9.339l-0.5-.073c0.05-.411.09-0.835,0.13-1.269s0.05-.858.05-1.27a30.5,30.5,0,0,0-.36-4.679c-0.24-1.547-.52-3.083-0.83-4.606s-0.6-3.053-.85-4.588a32.739,32.739,0,0,1-.45-4.625h-0.08q-0.825,1.706-1.86,3.917t-2.26,4.516a50.029,50.029,0,0,1-2.71,4.5,26.431,26.431,0,0,1-3.21,3.917,15.641,15.641,0,0,1-3.75,2.776,9.124,9.124,0,0,1-4.32,1.051,5.834,5.834,0,0,1-1.88-.308,4.568,4.568,0,0,1-1.57-.906,4.883,4.883,0,0,1-1.08-1.433,4.136,4.136,0,0,1-.42-1.886,2.751,2.751,0,0,1,.6-1.814,1.972,1.972,0,0,1,1.61-.726,1.879,1.879,0,0,1,1.3.454,1.417,1.417,0,0,1,.5,1.106,1.581,1.581,0,0,1-1.4,1.7,2.769,2.769,0,0,0,.66,2.357,3.2,3.2,0,0,0,2.33.8,7.823,7.823,0,0,0,3.71-.925,14.258,14.258,0,0,0,3.31-2.448,25.182,25.182,0,0,0,2.91-3.464q1.35-1.939,2.49-3.953t2.08-3.936c0.63-1.28,1.18-2.417,1.66-3.409l1.3-2.756a9.9,9.9,0,0,1,.64-2.448,6.545,6.545,0,0,1,.88-1.542,2.834,2.834,0,0,1,.92-0.8,1.793,1.793,0,0,1,.71-0.217,0.292,0.292,0,0,1,.36.29,0.543,0.543,0,0,1-.09.29,2,2,0,0,0-.18.435,6.711,6.711,0,0,0-.18.834,9.292,9.292,0,0,0-.09,1.451,22.985,22.985,0,0,0,.32,3.754c0.22,1.269.46,2.57,0.73,3.9s0.49,2.684.7,4.062a29.784,29.784,0,0,1,.31,4.281,11.4,11.4,0,0,1-.11,1.559h0.07q0.585-1.451,1.5-3.5,0.93-2.049,2.13-4.316,1.215-2.266,2.66-4.5a29.5,29.5,0,0,1,3.07-3.989,16.927,16.927,0,0,1,3.4-2.866,6.813,6.813,0,0,1,3.65-1.106,3.865,3.865,0,0,1,2.53.8,2.747,2.747,0,0,1,.98,2.249,3.506,3.506,0,0,1-.4,1.65,4.463,4.463,0,0,1-1.05,1.288,4.857,4.857,0,0,1-1.44.833,5.245,5.245,0,0,1-1.56.327v-0.218Zm10.69,9.177c-0.75,1.016-1.55,2.019-2.41,3.01a37.509,37.509,0,0,1-3.05,3.12,15.321,15.321,0,0,1-4.79,3.1,12.439,12.439,0,0,1-4.32.852,4.3,4.3,0,0,1-3.25-1.234,4.38,4.38,0,0,1-1.2-3.191,6.514,6.514,0,0,1,1.05-3.446,12.64,12.64,0,0,1,2.64-3.046,14.248,14.248,0,0,1,3.49-2.177,8.914,8.914,0,0,1,3.59-.834,4.254,4.254,0,0,1,2.43.6,1.946,1.946,0,0,1,.86,1.687,2.436,2.436,0,0,1-.59,1.6,6.133,6.133,0,0,1-1.54,1.306,12.079,12.079,0,0,1-2.11,1.016c-0.79.29-1.56,0.544-2.33,0.761s-1.5.4-2.17,0.544-1.23.267-1.67,0.363a5.475,5.475,0,0,0-.18,1.306,3.676,3.676,0,0,0,.87,2.538,3.07,3.07,0,0,0,2.42.979,7.654,7.654,0,0,0,3.35-.906,15.331,15.331,0,0,0,3.66-2.647c0.94-.895,1.85-1.832,2.72-2.812s1.62-1.892,2.27-2.738Zm-7.85-2.467a0.876,0.876,0,0,0-.27-0.724,1.07,1.07,0,0,0-.7-0.219,3.392,3.392,0,0,0-1.96.763,11.447,11.447,0,0,0-1.97,1.867,17.146,17.146,0,0,0-1.62,2.321,8.044,8.044,0,0,0-.92,2.122,11.163,11.163,0,0,0,2.82-.961,12.231,12.231,0,0,0,2.36-1.523,7.874,7.874,0,0,0,1.65-1.813A3.414,3.414,0,0,0,1207.35,694.156Zm12.27-.943c-0.43.653-1,1.446-1.7,2.376s-1.38,1.9-2.04,2.92a30.954,30.954,0,0,0-1.73,2.992,5.876,5.876,0,0,0-.74,2.629,1.958,1.958,0,0,0,.27,1.053,1,1,0,0,0,.92.435,4.192,4.192,0,0,0,2.82-1.469,24.684,24.684,0,0,0,3.32-4.407c0.41-.677.82-1.342,1.21-2l1.11-1.813c0.33-.556.64-1.058,0.92-1.506s0.5-.8.67-1.07l3.87-.145c-0.41.653-.97,1.469-1.67,2.449s-1.39,2-2.08,3.065a32.15,32.15,0,0,0-1.77,3.119,6.3,6.3,0,0,0-.74,2.647,1.811,1.811,0,0,0,.33,1.125,1.166,1.166,0,0,0,1.01.435,3.92,3.92,0,0,0,1.88-.508,8.85,8.85,0,0,0,1.81-1.323,13.063,13.063,0,0,0,1.62-1.869,18.417,18.417,0,0,0,1.34-2.14,14.232,14.232,0,0,0,.94-2.14,7.047,7.047,0,0,0,.4-1.886,3.818,3.818,0,0,1-.38-0.725,2.352,2.352,0,0,1-.16-0.907,2.043,2.043,0,0,1,.39-1.251,1.457,1.457,0,0,1,1.23-.526,1.7,1.7,0,0,1,1,.273,1.9,1.9,0,0,1,.59.689,2.793,2.793,0,0,1,.29.942,7.314,7.314,0,0,1,.07,1.034,8.918,8.918,0,0,1-.05.961c-0.04.375-.08,0.732-0.13,1.07a3.939,3.939,0,0,0,2.53.98,3.484,3.484,0,0,0,2.15-.69,7.959,7.959,0,0,0,1.61-1.6l0.25,0.182a7.78,7.78,0,0,1-1.75,1.777,3.817,3.817,0,0,1-3.7.49,4.9,4.9,0,0,1-1.16-.671,11.326,11.326,0,0,1-1.64,3.264,12.318,12.318,0,0,1-5.77,4.371,10.284,10.284,0,0,1-3.54.634,3.739,3.739,0,0,1-2.86-.979,3.555,3.555,0,0,1-.9-2.5,4.045,4.045,0,0,1,.04-0.616,2.208,2.208,0,0,1,.1-0.471l-0.07-.073a17.553,17.553,0,0,1-1.28,1.705,11.2,11.2,0,0,1-1.52,1.486,7.47,7.47,0,0,1-1.75,1.052,5.141,5.141,0,0,1-2.03.4,2.285,2.285,0,0,1-2-.889,3.628,3.628,0,0,1-.63-2.158,6.263,6.263,0,0,1,.59-2.52,22.257,22.257,0,0,1,1.43-2.721c0.55-.906,1.13-1.782,1.73-2.628s1.11-1.585,1.52-2.214Z" transform="translate(-1161 -679.938)"/>
</svg>
