<svg xmlns="http://www.w3.org/2000/svg" width="269.094" height="28.188" viewBox="0 0 269.094 28.188">
  <defs>
    <style>
      .cls-1 {
        fill: #fff;
        fill-rule: evenodd;
      }
    </style>
  </defs>
  <path id="header_header_logo.svg" data-name="header/header_logo.svg" class="cls-1" d="M585.486,25.374a3.64,3.64,0,0,1,.518.85,3.113,3.113,0,0,1,.23,1.276,3.637,3.637,0,0,1-.417,1.63,4.807,4.807,0,0,1-1.2,1.5,6.407,6.407,0,0,1-1.872,1.091,6.621,6.621,0,0,1-2.418.425,3.928,3.928,0,0,1-2.765-.978,3.458,3.458,0,0,1-1.065-2.679,4.333,4.333,0,0,1,.763-2.523,7.122,7.122,0,0,1,2.073-1.942,13.988,13.988,0,0,1,3.009-1.418,29.121,29.121,0,0,1,3.57-.964q1.872-.383,3.8-0.61t3.657-.34q1.728-.113,3.153-0.142t2.289-.028a4.9,4.9,0,0,0,.85-0.085c0.317-.057.633-0.123,0.95-0.2s0.619-.142.907-0.2a3.829,3.829,0,0,1,.72-0.085q0.864,0,.864.51a0.423,0.423,0,0,1-.418.354,3.625,3.625,0,0,1-.849.1q-0.346,0-.806-0.028t-0.979-.028h-0.029a3.988,3.988,0,0,0-.994.2,6.421,6.421,0,0,0-1.54.737,12.59,12.59,0,0,0-1.857,1.459,13.173,13.173,0,0,0-1.944,2.339,34.941,34.941,0,0,0-1.929,3.19q-0.923,1.716-1.944,3.43a36.843,36.843,0,0,1-2.217,3.3,15.028,15.028,0,0,1-2.75,2.807,12.814,12.814,0,0,1-3.527,1.942,13.243,13.243,0,0,1-4.564.722,6.781,6.781,0,0,1-1.857-.241,4.96,4.96,0,0,1-1.469-.666,3.1,3.1,0,0,1-.964-1.035,2.676,2.676,0,0,1-.346-1.347,2.37,2.37,0,0,1,.519-1.545,1.848,1.848,0,0,1,1.525-.638,2.063,2.063,0,0,1,1.21.383A1.254,1.254,0,0,1,575.926,37a1.916,1.916,0,0,1-.23.95,1.178,1.178,0,0,1-.778.553,0.488,0.488,0,0,1-.014.113,0.73,0.73,0,0,0-.014.17,1.74,1.74,0,0,0,.59,1.389,2.165,2.165,0,0,0,1.54.482,5.243,5.243,0,0,0,3-.936,11.393,11.393,0,0,0,2.49-2.48,33.1,33.1,0,0,0,2.419-3.742q1.224-2.169,2.721-4.72a16.474,16.474,0,0,1,2.548-3.345,16.291,16.291,0,0,1,2.88-2.31,15.642,15.642,0,0,1,2.937-1.446,16.862,16.862,0,0,1,2.721-.751V20.866a50.886,50.886,0,0,0-9.128.737,24.147,24.147,0,0,0-5.946,1.815,8.338,8.338,0,0,0-3.239,2.495,4.761,4.761,0,0,0-.979,2.75,2.344,2.344,0,0,0,.72,1.786,2.534,2.534,0,0,0,1.814.681,3.529,3.529,0,0,0,1.526-.34,4.5,4.5,0,0,0,1.252-.864,3.963,3.963,0,0,0,.836-1.19,3.122,3.122,0,0,0,.3-1.29,3.176,3.176,0,0,0-.662-1.956Zm18.428,8.108q-0.923,1.276-1.929,2.509a28.961,28.961,0,0,1-2.1,2.31,11.723,11.723,0,0,1-2.693,2,6.62,6.62,0,0,1-3.1.694,3.172,3.172,0,0,1-2.131-.666,2.488,2.488,0,0,1-.777-2,4.16,4.16,0,0,1,.4-1.715q0.4-.893.878-1.772t0.864-1.687a3.38,3.38,0,0,0,.389-1.432,1.323,1.323,0,0,0-.49-1.148,2.215,2.215,0,0,0-1.324-.355,1.447,1.447,0,0,1-.3-0.028,0.139,0.139,0,0,1-.129-0.142c0-.113.105-0.17,0.317-0.17a10.981,10.981,0,0,0,2.116-.184,5.648,5.648,0,0,0,1.814-.709,9.222,9.222,0,0,0,1.8-1.46,24.075,24.075,0,0,0,2.044-2.438,14.248,14.248,0,0,1,2.131-2.282,11.425,11.425,0,0,1,2.188-1.474,9.3,9.3,0,0,1,2.188-.794,9.7,9.7,0,0,1,2.074-.241,4.214,4.214,0,0,1,2.231.553,1.816,1.816,0,0,1,.907,1.659,1.977,1.977,0,0,1-.316,1.106,2.524,2.524,0,0,1-.807.779,4.036,4.036,0,0,1-1.08.454,4.445,4.445,0,0,1-1.137.156,11.543,11.543,0,0,0,.562-1.389,4.5,4.5,0,0,0,.244-1.418q0-1.559-.979-1.559a1.579,1.579,0,0,0-1.123.51,8.677,8.677,0,0,0-1.065,1.318q-0.547.808-1.181,1.786a17.587,17.587,0,0,1-1.439,1.913,12.035,12.035,0,0,1-1.9,1.772,8.933,8.933,0,0,1-2.1,1.134,13.548,13.548,0,0,1-2.577.68q-1.425.241-3.3,0.411v0.057q0.663,0.34,1.267.709a5.33,5.33,0,0,1,1.08.864,4.075,4.075,0,0,1,.763,1.12,3.416,3.416,0,0,1,.288,1.446,3.965,3.965,0,0,1-.216,1.248q-0.216.652-.475,1.29t-0.475,1.219a2.963,2.963,0,0,0-.216,1.006,1.117,1.117,0,0,0,.23.751,0.9,0.9,0,0,0,.72.269,3.528,3.528,0,0,0,1.843-.666,12.842,12.842,0,0,0,2.217-1.885A24.606,24.606,0,0,0,602,35.437q0.908-1.162,1.656-2.154Zm4.578-2.92q-0.923,1.446-1.814,2.806T605.1,35.906q-0.692,1.176-1.109,2.084a3.727,3.727,0,0,0-.418,1.446,1.4,1.4,0,0,0,.144.666,0.536,0.536,0,0,0,.519.269,2.447,2.447,0,0,0,1.252-.411,9.763,9.763,0,0,0,1.4-1.049,17.65,17.65,0,0,0,1.44-1.446q0.718-.808,1.353-1.587T610.81,34.4q0.5-.694.821-1.12l0.23,0.085q-0.692.964-1.727,2.339a26,26,0,0,1-2.333,2.679,13.858,13.858,0,0,1-2.447,2.027,4.669,4.669,0,0,1-2.5.695,2.29,2.29,0,0,1-1.786-.666,2.662,2.662,0,0,1-.6-1.857,6.773,6.773,0,0,1,1.108-3.189q1.109-1.914,2.808-4.72Zm-1.468-4.423a1.894,1.894,0,0,1,.59-1.4,2.037,2.037,0,0,1,2.85,0,1.961,1.961,0,0,1,0,2.806,2.037,2.037,0,0,1-2.85,0A1.893,1.893,0,0,1,607.024,26.139Zm-0.605,14.628,5.816-10.092,4.147-.113-4.406,6.407,0.058,0.057a27.6,27.6,0,0,1,2.951-3.6,8.036,8.036,0,0,1,2.4-1.786,7.554,7.554,0,0,1,.72-0.765,2.329,2.329,0,0,1,.821-0.454,5.921,5.921,0,0,1,1.353-.241q0.849-.07,2.318-0.127a9.372,9.372,0,0,0-.691.765,7.619,7.619,0,0,0-.633.907,5.76,5.76,0,0,0-.475.993,2.866,2.866,0,0,0-.188.992,2.126,2.126,0,0,0,.3,1.106,1.036,1.036,0,0,0,.964.51,2.184,2.184,0,0,0,.864-0.184,4.141,4.141,0,0,0,.835-0.482,6.221,6.221,0,0,0,.763-0.666q0.36-.368.648-0.709l0.2,0.17q-0.2.227-.576,0.666a5.048,5.048,0,0,1-.994.865,6.672,6.672,0,0,1-1.526.751,6.439,6.439,0,0,1-2.174.326,3.628,3.628,0,0,1-1.267-.213,3.05,3.05,0,0,1-.964-0.553,2.428,2.428,0,0,1-.605-0.794,2.214,2.214,0,0,1-.216-0.964,3.157,3.157,0,0,1,.23-1.332V32.149a7.913,7.913,0,0,0-1.886,1.5,25.549,25.549,0,0,0-1.986,2.31q-0.966,1.262-1.757,2.523a21.409,21.409,0,0,0-1.195,2.112Zm31.673-10.205q-0.317.454-.821,1.162t-1.079,1.531q-0.576.823-1.152,1.716t-1.051,1.743a14.822,14.822,0,0,0-.778,1.587,3.424,3.424,0,0,0-.3,1.247,0.666,0.666,0,0,0,.662.822A2.641,2.641,0,0,0,635,39.8a14.437,14.437,0,0,0,1.8-1.517,29.026,29.026,0,0,0,2.045-2.225q1.065-1.276,2.16-2.693l0.172,0.113L638.927,36.3a27.1,27.1,0,0,1-2.174,2.438,11.811,11.811,0,0,1-2.159,1.715,4.218,4.218,0,0,1-2.2.652,2.931,2.931,0,0,1-1.5-.312,1.983,1.983,0,0,1-.763-0.779,2.527,2.527,0,0,1-.288-0.978q-0.043-.51-0.044-0.907l-0.086-.057q-0.461.539-.993,1.078a8.377,8.377,0,0,1-1.166.978,6.386,6.386,0,0,1-1.325.709,4.015,4.015,0,0,1-1.468.269,2.622,2.622,0,0,1-2.088-.808,3.9,3.9,0,0,1-.705-2.594,5.907,5.907,0,0,1,.633-2.565,8.089,8.089,0,0,1,1.8-2.41,9.768,9.768,0,0,1,2.778-1.8,8.7,8.7,0,0,1,3.542-.709,2.416,2.416,0,0,1,1.713.553,2.551,2.551,0,0,1,.763,1.375h0.058L634,30.675Zm-11.431,9.3a2.785,2.785,0,0,0,1.555-.765,11.64,11.64,0,0,0,1.871-1.956,13.945,13.945,0,0,0,1.584-2.594,6.285,6.285,0,0,0,.662-2.679,1.2,1.2,0,0,0-.388-0.978,1.333,1.333,0,0,0-.878-0.326,2.259,2.259,0,0,0-1.224.4,5.882,5.882,0,0,0-1.21,1.063,12.011,12.011,0,0,0-1.123,1.5,14.909,14.909,0,0,0-.936,1.7,10.662,10.662,0,0,0-.633,1.715,5.815,5.815,0,0,0-.23,1.5,2.531,2.531,0,0,0,.187.95A0.739,0.739,0,0,0,626.661,39.86Zm16.816,0.907q0.173-.283.619-0.978T645.1,38.2q0.561-.893,1.18-1.885t1.123-1.886q0.5-.892.835-1.573a2.677,2.677,0,0,0,.331-0.964,0.644,0.644,0,0,0-.748-0.709,2.179,2.179,0,0,0-1.167.511,13.032,13.032,0,0,0-1.54,1.346q-0.836.837-1.728,1.871T641.706,37q-0.792,1.049-1.425,2T639.3,40.6l-3.888.17q1.383-2.523,3.024-5.089t2.966-5l4.146-.113-3.83,5.528,0.058,0.056q0.6-.736,1.411-1.757a17.007,17.007,0,0,1,1.8-1.942,11.188,11.188,0,0,1,2.159-1.573,4.918,4.918,0,0,1,2.433-.652,2.488,2.488,0,0,1,1.641.525,1.891,1.891,0,0,1,.634,1.545,3.441,3.441,0,0,1-.144,1.063,5.782,5.782,0,0,1-.4.921l0.057,0.057,1.167-1.276a15.608,15.608,0,0,1,1.4-1.347,8.13,8.13,0,0,1,1.584-1.063,3.759,3.759,0,0,1,1.727-.425,2.633,2.633,0,0,1,1.7.553,1.929,1.929,0,0,1,.691,1.6,4.007,4.007,0,0,1-.6,2.027,21.167,21.167,0,0,1-1.325,2q-0.72.964-1.325,1.8a2.61,2.61,0,0,0-.6,1.432,0.763,0.763,0,0,0,.187.524,0.708,0.708,0,0,0,.561.213,2.447,2.447,0,0,0,1.253-.411,9.156,9.156,0,0,0,1.382-1.049,17.326,17.326,0,0,0,1.411-1.446q0.7-.808,1.339-1.587t1.152-1.446q0.518-.666.835-1.063l0.2,0.17q-0.748.964-1.785,2.325a28.713,28.713,0,0,1-2.217,2.58,11.97,11.97,0,0,1-2.275,1.913,4.637,4.637,0,0,1-2.534.751,2.689,2.689,0,0,1-1.108-.213,2.018,2.018,0,0,1-.763-0.567,2.5,2.5,0,0,1-.432-0.78,2.636,2.636,0,0,1-.144-0.85,4.045,4.045,0,0,1,.576-2.027,16.289,16.289,0,0,1,1.267-1.9q0.69-.894,1.266-1.631a2.184,2.184,0,0,0,.576-1.219,0.684,0.684,0,0,0-.216-0.553,0.751,0.751,0,0,0-.5-0.184,2.085,2.085,0,0,0-1.152.524,14.971,14.971,0,0,0-1.512,1.347q-0.82.823-1.684,1.871t-1.627,2.1q-0.764,1.049-1.382,1.984T647.479,40.6ZM676.5,33.481q-0.662.936-1.483,1.885t-1.857,1.942a17.287,17.287,0,0,1-3.858,2.835,8.983,8.983,0,0,1-4.175.964,4.464,4.464,0,0,1-3.024-.907,3.316,3.316,0,0,1-1.036-2.637,5.114,5.114,0,0,1,.864-2.835,9.123,9.123,0,0,1,2.174-2.325,11.649,11.649,0,0,1,2.85-1.588,8.119,8.119,0,0,1,2.923-.6,5.145,5.145,0,0,1,2.274.439,1.488,1.488,0,0,1,.893,1.431,2.135,2.135,0,0,1-.979,1.73,9.714,9.714,0,0,1-2.318,1.262,20.5,20.5,0,0,1-2.692.85q-1.355.327-2.131,0.5a5.558,5.558,0,0,0-.086.567,5.389,5.389,0,0,0-.029.567,4.421,4.421,0,0,0,.115,1.006,2.281,2.281,0,0,0,.389.865,2.009,2.009,0,0,0,.72.6,2.424,2.424,0,0,0,1.108.227,5.529,5.529,0,0,0,2.908-.978,21.265,21.265,0,0,0,3.139-2.452,23.783,23.783,0,0,0,1.771-1.871q0.762-.907,1.281-1.644Zm-6.335-2.126a0.707,0.707,0,0,0-.806-0.794A2.164,2.164,0,0,0,668,31.2a8.2,8.2,0,0,0-1.354,1.531,14.12,14.12,0,0,0-1.079,1.828,6.26,6.26,0,0,0-.576,1.559,7.988,7.988,0,0,0,2.174-.78,7.5,7.5,0,0,0,1.641-1.176,4.712,4.712,0,0,0,1.022-1.389A3.337,3.337,0,0,0,670.168,31.355Zm0.605,9.412q2.965-4.933,5.889-9.837t5.888-9.894l4.146-.283q-2.418,4-4.823,7.91t-4.88,7.682L677.05,36.4q0.779-.935,1.685-2.027a20.141,20.141,0,0,1,1.915-2.013,10.8,10.8,0,0,1,2.13-1.531,4.887,4.887,0,0,1,2.361-.609,4.559,4.559,0,0,1,.951.1,2.222,2.222,0,0,1,.806.338,1.914,1.914,0,0,1,.561.607,1.75,1.75,0,0,1,.216.9,1.872,1.872,0,0,1-.691,1.509,5.107,5.107,0,0,1-1.627.9,10.322,10.322,0,0,1-1.915.465c-0.652.094-1.171,0.16-1.554,0.2V35.3l0.863,0.341a3.764,3.764,0,0,1,.778.413,2.164,2.164,0,0,1,.576.6,1.569,1.569,0,0,1,.23.868,1.957,1.957,0,0,1-.1.6q-0.1.313-.23,0.611t-0.23.584a1.53,1.53,0,0,0-.1.512,0.457,0.457,0,0,0,.489.541,2.249,2.249,0,0,0,1.124-.383A10.747,10.747,0,0,0,686.639,39a19.625,19.625,0,0,0,1.454-1.375q0.734-.765,1.4-1.559t1.21-1.517q0.546-.723.892-1.233l0.259,0.113q-0.69.993-1.727,2.311a27.161,27.161,0,0,1-2.3,2.566,18.372,18.372,0,0,1-1.555,1.389,7.729,7.729,0,0,1-1.324.85,5.321,5.321,0,0,1-1.224.439,5.789,5.789,0,0,1-1.224.128,3.476,3.476,0,0,1-1.972-.511,1.752,1.752,0,0,1-.763-1.563A2.328,2.328,0,0,1,679.973,38a7.864,7.864,0,0,1,.475-0.839q0.26-.4.475-0.81a1.959,1.959,0,0,0,.216-0.924q-0.375.148-.777,0.265a2.84,2.84,0,0,1-.807.118,0.654,0.654,0,0,1-.345-0.087,0.347,0.347,0,0,1-.144-0.323q0-.468.691-0.469a4.073,4.073,0,0,1,.806.071,3.057,3.057,0,0,0,.605.071,1.706,1.706,0,0,0,.878-0.267,3.955,3.955,0,0,0,.835-0.675,3.6,3.6,0,0,0,.634-0.914,2.272,2.272,0,0,0,.244-0.985,0.867,0.867,0,0,0-.2-0.576,0.712,0.712,0,0,0-.576-0.239,2.345,2.345,0,0,0-1.253.51,11.572,11.572,0,0,0-1.554,1.332q-0.822.823-1.656,1.843t-1.569,2.041q-0.735,1.02-1.311,1.942T674.747,40.6Zm25.713-10.205q-0.923,1.446-1.814,2.806t-1.584,2.538q-0.69,1.176-1.108,2.084a3.727,3.727,0,0,0-.418,1.446,1.4,1.4,0,0,0,.144.666,0.536,0.536,0,0,0,.518.269,2.447,2.447,0,0,0,1.253-.411,9.763,9.763,0,0,0,1.4-1.049,17.487,17.487,0,0,0,1.439-1.446q0.72-.808,1.354-1.587T698.8,34.4q0.5-.694.821-1.12l0.23,0.085q-0.692.964-1.728,2.339a25.989,25.989,0,0,1-2.332,2.679,13.825,13.825,0,0,1-2.448,2.027,4.664,4.664,0,0,1-2.5.695,2.29,2.29,0,0,1-1.785-.666,2.662,2.662,0,0,1-.605-1.857,6.776,6.776,0,0,1,1.109-3.189q1.108-1.914,2.807-4.72Zm-1.469-4.423a1.9,1.9,0,0,1,.591-1.4,2.037,2.037,0,0,1,2.85,0,1.961,1.961,0,0,1,0,2.806,2.037,2.037,0,0,1-2.85,0A1.894,1.894,0,0,1,695.017,26.139Zm20.526-.765a3.64,3.64,0,0,1,.518.85,3.113,3.113,0,0,1,.23,1.276,3.637,3.637,0,0,1-.417,1.63,4.807,4.807,0,0,1-1.2,1.5,6.42,6.42,0,0,1-1.872,1.091,6.622,6.622,0,0,1-2.419.425,3.927,3.927,0,0,1-2.764-.978,3.458,3.458,0,0,1-1.065-2.679,4.333,4.333,0,0,1,.763-2.523,7.11,7.11,0,0,1,2.073-1.942,13.988,13.988,0,0,1,3.009-1.418,29.121,29.121,0,0,1,3.57-.964q1.872-.383,3.8-0.61t3.657-.34q1.728-.113,3.153-0.142t2.289-.028a4.9,4.9,0,0,0,.85-0.085c0.317-.057.633-0.123,0.95-0.2s0.619-.142.907-0.2a3.829,3.829,0,0,1,.72-0.085q0.864,0,.864.51a0.423,0.423,0,0,1-.418.354,3.632,3.632,0,0,1-.849.1q-0.346,0-.806-0.028t-0.979-.028h-0.029a3.988,3.988,0,0,0-.994.2,6.421,6.421,0,0,0-1.54.737,12.59,12.59,0,0,0-1.857,1.459,13.173,13.173,0,0,0-1.944,2.339,34.941,34.941,0,0,0-1.929,3.19q-0.923,1.716-1.944,3.43a37.058,37.058,0,0,1-2.217,3.3,15.028,15.028,0,0,1-2.75,2.807,12.829,12.829,0,0,1-3.527,1.942,13.243,13.243,0,0,1-4.564.722,6.781,6.781,0,0,1-1.857-.241,4.96,4.96,0,0,1-1.469-.666,3.1,3.1,0,0,1-.964-1.035,2.676,2.676,0,0,1-.346-1.347,2.374,2.374,0,0,1,.518-1.545,1.851,1.851,0,0,1,1.526-.638,2.063,2.063,0,0,1,1.21.383A1.254,1.254,0,0,1,705.983,37a1.906,1.906,0,0,1-.231.95,1.173,1.173,0,0,1-.777.553,0.488,0.488,0,0,1-.014.113,0.719,0.719,0,0,0-.015.17,1.741,1.741,0,0,0,.591,1.389,2.165,2.165,0,0,0,1.54.482,5.246,5.246,0,0,0,3-.936,11.393,11.393,0,0,0,2.49-2.48,33.1,33.1,0,0,0,2.419-3.742q1.224-2.169,2.721-4.72a16.474,16.474,0,0,1,2.548-3.345,16.291,16.291,0,0,1,2.88-2.31,15.642,15.642,0,0,1,2.937-1.446,16.862,16.862,0,0,1,2.721-.751V20.866a50.886,50.886,0,0,0-9.128.737,24.147,24.147,0,0,0-5.946,1.815,8.338,8.338,0,0,0-3.239,2.495,4.761,4.761,0,0,0-.979,2.75,2.344,2.344,0,0,0,.72,1.786,2.534,2.534,0,0,0,1.814.681,3.529,3.529,0,0,0,1.526-.34,4.517,4.517,0,0,0,1.252-.864,3.963,3.963,0,0,0,.836-1.19,3.122,3.122,0,0,0,.3-1.29,3.176,3.176,0,0,0-.662-1.956Zm18.428,8.108q-0.923,1.276-1.929,2.509a29.153,29.153,0,0,1-2.1,2.31,11.723,11.723,0,0,1-2.693,2,6.62,6.62,0,0,1-3.095.694,3.171,3.171,0,0,1-2.131-.666,2.488,2.488,0,0,1-.777-2,4.16,4.16,0,0,1,.4-1.715q0.4-.893.878-1.772t0.864-1.687a3.38,3.38,0,0,0,.389-1.432,1.323,1.323,0,0,0-.49-1.148,2.216,2.216,0,0,0-1.325-.355,1.437,1.437,0,0,1-.3-0.028,0.139,0.139,0,0,1-.129-0.142c0-.113.1-0.17,0.316-0.17a10.992,10.992,0,0,0,2.117-.184,5.648,5.648,0,0,0,1.814-.709,9.222,9.222,0,0,0,1.8-1.46,24.075,24.075,0,0,0,2.044-2.438,14.248,14.248,0,0,1,2.131-2.282,11.394,11.394,0,0,1,2.188-1.474,9.3,9.3,0,0,1,2.188-.794A9.7,9.7,0,0,1,738.2,20.3a4.214,4.214,0,0,1,2.231.553,1.816,1.816,0,0,1,.907,1.659,1.97,1.97,0,0,1-.317,1.106,2.521,2.521,0,0,1-.806.779,4.036,4.036,0,0,1-1.08.454A4.445,4.445,0,0,1,738,25a11.543,11.543,0,0,0,.562-1.389,4.525,4.525,0,0,0,.244-1.418q0-1.559-.979-1.559a1.579,1.579,0,0,0-1.123.51,8.677,8.677,0,0,0-1.065,1.318q-0.548.808-1.181,1.786a17.587,17.587,0,0,1-1.439,1.913,12.035,12.035,0,0,1-1.9,1.772,8.933,8.933,0,0,1-2.1,1.134,13.548,13.548,0,0,1-2.577.68q-1.425.241-3.3,0.411v0.057q0.663,0.34,1.267.709a5.33,5.33,0,0,1,1.08.864,4.075,4.075,0,0,1,.763,1.12,3.416,3.416,0,0,1,.288,1.446,3.965,3.965,0,0,1-.216,1.248q-0.216.652-.475,1.29t-0.475,1.219a2.963,2.963,0,0,0-.216,1.006,1.117,1.117,0,0,0,.23.751,0.9,0.9,0,0,0,.72.269,3.528,3.528,0,0,0,1.843-.666,12.842,12.842,0,0,0,2.217-1.885,24.606,24.606,0,0,0,1.886-2.155q0.907-1.162,1.656-2.154Zm4.578-2.92q-0.923,1.446-1.814,2.806t-1.583,2.538q-0.692,1.176-1.109,2.084a3.727,3.727,0,0,0-.418,1.446,1.4,1.4,0,0,0,.144.666,0.536,0.536,0,0,0,.519.269,2.447,2.447,0,0,0,1.252-.411,9.763,9.763,0,0,0,1.4-1.049,17.487,17.487,0,0,0,1.439-1.446q0.72-.808,1.354-1.587t1.137-1.474q0.5-.694.821-1.12l0.23,0.085q-0.692.964-1.728,2.339a25.869,25.869,0,0,1-2.332,2.679,13.825,13.825,0,0,1-2.448,2.027,4.663,4.663,0,0,1-2.5.695,2.29,2.29,0,0,1-1.786-.666,2.662,2.662,0,0,1-.6-1.857,6.773,6.773,0,0,1,1.108-3.189q1.109-1.914,2.808-4.72Zm-1.468-4.423a1.894,1.894,0,0,1,.59-1.4,2.037,2.037,0,0,1,2.85,0,1.961,1.961,0,0,1,0,2.806,2.037,2.037,0,0,1-2.85,0A1.893,1.893,0,0,1,737.081,26.139Zm2.764,5.1,0.2-.454h2.39l2.448-4.11,4-.142L746.3,30.788h3.945l-0.231.454h-3.974q-0.4.681-1.108,1.786t-1.4,2.3q-0.69,1.191-1.209,2.3a4.526,4.526,0,0,0-.518,1.814,0.868,0.868,0,0,0,.273.709,1.16,1.16,0,0,0,.763.227,3.594,3.594,0,0,0,1.584-.411,10.1,10.1,0,0,0,1.685-1.063,15.7,15.7,0,0,0,1.641-1.46q0.79-.808,1.5-1.6t1.282-1.488q0.574-.695.921-1.12l0.23,0.113q-0.98,1.134-2.073,2.495a23.9,23.9,0,0,1-2.361,2.537,12.891,12.891,0,0,1-2.736,1.956,6.71,6.71,0,0,1-3.2.779,2.573,2.573,0,0,1-1.972-.695,2.533,2.533,0,0,1-.648-1.8,4.07,4.07,0,0,1,.158-1.12,8.351,8.351,0,0,1,.562-1.361q0.4-.807,1.065-1.97t1.7-2.92h-2.332Zm24.042,2.182q-1.122,1.418-2.289,2.765a20.254,20.254,0,0,1-2.692,2.565,11.886,11.886,0,0,1-2.894,1.73,8.961,8.961,0,0,1-3.441.624,5.962,5.962,0,0,1-1.526-.2,4.218,4.218,0,0,1-1.324-.6,2.892,2.892,0,0,1-1.267-2.495,5.683,5.683,0,0,1,.864-3.061,8.789,8.789,0,0,1,2.2-2.4,11,11,0,0,1,2.937-1.573,9.173,9.173,0,0,1,3.067-.567,4.706,4.706,0,0,1,2.246.468,1.506,1.506,0,0,1,.864,1.4,2,2,0,0,1-.26,1.035,2.244,2.244,0,0,1-.705.737,3.205,3.205,0,0,1-1.022.44,5.043,5.043,0,0,1-1.209.141h-0.231a4.951,4.951,0,0,0,.072-0.694c0.01-.255.015-0.571,0.015-0.95a4.962,4.962,0,0,0-.173-1.5,0.7,0.7,0,0,0-.72-0.511,2.04,2.04,0,0,0-1.325.68,9.044,9.044,0,0,0-1.367,1.687,11.061,11.061,0,0,0-1.08,2.183,6.335,6.335,0,0,0-.432,2.169,3.053,3.053,0,0,0,.619,1.984,2.247,2.247,0,0,0,1.857.766,5.14,5.14,0,0,0,2.707-.879,17.817,17.817,0,0,0,2.908-2.325,23.933,23.933,0,0,0,1.886-2.027q0.908-1.091,1.483-1.8Zm-5.614,7.343q2.965-4.933,5.845-9.851t5.845-9.88l4.117-.283q-2.39,3.941-4.823,7.938t-4.88,7.626l0.058,0.056q0.662-.878,1.54-1.942a18.884,18.884,0,0,1,1.915-2,11.786,11.786,0,0,1,2.188-1.573,4.72,4.72,0,0,1,2.3-.638,2.807,2.807,0,0,1,1.655.5,1.887,1.887,0,0,1,.706,1.659,4.116,4.116,0,0,1-.591,2.055,18.163,18.163,0,0,1-1.31,1.985q-0.72.95-1.31,1.8a2.733,2.733,0,0,0-.59,1.474,0.738,0.738,0,0,0,.158.5,0.59,0.59,0,0,0,.475.184,2.523,2.523,0,0,0,1.311-.468,10.6,10.6,0,0,0,1.5-1.177,20.251,20.251,0,0,0,1.512-1.573q0.747-.864,1.382-1.644t1.094-1.389q0.461-.61.662-0.836l0.173,0.141q-0.49.6-1.08,1.389t-1.3,1.659q-0.705.865-1.483,1.687a16.353,16.353,0,0,1-1.6,1.488,7.748,7.748,0,0,1-1.7,1.063,4.266,4.266,0,0,1-1.771.4,2.184,2.184,0,0,1-.978-0.213,2.117,2.117,0,0,1-.72-0.567,2.413,2.413,0,0,1-.432-0.822,3.176,3.176,0,0,1-.144-0.95,3.917,3.917,0,0,1,.547-2.013,16.317,16.317,0,0,1,1.195-1.772q0.648-.836,1.181-1.56a2.293,2.293,0,0,0,.532-1.318,0.606,0.606,0,0,0-.662-0.709,2.462,2.462,0,0,0-1.252.467A10.546,10.546,0,0,0,767.99,32.9a23.507,23.507,0,0,0-1.669,1.772q-0.851.992-1.628,2.041t-1.425,2.055a18.472,18.472,0,0,0-1.051,1.828Zm33.343-7.286q-0.663.936-1.483,1.885t-1.857,1.942a17.29,17.29,0,0,1-3.859,2.835,8.98,8.98,0,0,1-4.175.964,4.461,4.461,0,0,1-3.023-.907,3.316,3.316,0,0,1-1.037-2.637,5.122,5.122,0,0,1,.864-2.835A9.14,9.14,0,0,1,779.22,32.4a11.637,11.637,0,0,1,2.851-1.588,8.114,8.114,0,0,1,2.922-.6,5.149,5.149,0,0,1,2.275.439,1.487,1.487,0,0,1,.892,1.431,2.134,2.134,0,0,1-.978,1.73,9.722,9.722,0,0,1-2.319,1.262,20.5,20.5,0,0,1-2.692.85q-1.353.327-2.131,0.5-0.057.284-.086,0.567a5.673,5.673,0,0,0-.029.567,4.478,4.478,0,0,0,.115,1.006,2.312,2.312,0,0,0,.389.865,2.009,2.009,0,0,0,.72.6,2.428,2.428,0,0,0,1.109.227,5.532,5.532,0,0,0,2.908-.978,21.311,21.311,0,0,0,3.138-2.452,23.6,23.6,0,0,0,1.771-1.871q0.763-.907,1.282-1.644Zm-6.335-2.126a0.707,0.707,0,0,0-.806-0.794,2.166,2.166,0,0,0-1.368.638,8.157,8.157,0,0,0-1.353,1.531,14.243,14.243,0,0,0-1.08,1.828,6.341,6.341,0,0,0-.576,1.559,7.976,7.976,0,0,0,2.174-.78,7.5,7.5,0,0,0,1.641-1.176,4.734,4.734,0,0,0,1.023-1.389A3.337,3.337,0,0,0,785.281,31.355ZM786,40.767l5.96-10.036,4.089-.17q-2.073,2.834-3.974,5.783l0.058,0.057q0.749-.935,1.67-2.012a21.6,21.6,0,0,1,1.943-2,12.492,12.492,0,0,1,2.1-1.545A4.261,4.261,0,0,1,800,30.221a2.954,2.954,0,0,1,1.828.553,1.974,1.974,0,0,1,.734,1.687,3.772,3.772,0,0,1-.59,1.928,21.032,21.032,0,0,1-1.31,1.942q-0.72.95-1.31,1.815a2.816,2.816,0,0,0-.591,1.517,0.8,0.8,0,0,0,.159.5,0.586,0.586,0,0,0,.5.213,2.561,2.561,0,0,0,1.439-.581,14.434,14.434,0,0,0,1.671-1.432q0.662-.652,1.324-1.4t1.238-1.446q0.576-.694,1.037-1.276t0.72-.922l0.259,0.142q-0.98,1.275-2.088,2.636t-2.231,2.495a12.031,12.031,0,0,1-2.289,1.857,4.347,4.347,0,0,1-2.261.666,2.427,2.427,0,0,1-1.943-.751,2.867,2.867,0,0,1-.648-1.942,3.677,3.677,0,0,1,.561-1.942,13.3,13.3,0,0,1,1.253-1.73q0.69-.807,1.252-1.488a2.059,2.059,0,0,0,.562-1.276,0.694,0.694,0,0,0-.777-0.794,2.371,2.371,0,0,0-1.268.524,12.963,12.963,0,0,0-1.612,1.375q-0.864.851-1.756,1.9t-1.685,2.1q-0.792,1.049-1.382,1.985a16.149,16.149,0,0,0-.878,1.531ZM569.064,15.608c-4.785,2.408-8.242,8.549-10.317,15.5-0.224.753-.224,0.745-0.224,0.745a2,2,0,0,1-1.949,1.539H539.017a1.031,1.031,0,0,0-.782.358,1,1,0,0,0-.228.82s-0.063-.154.059,0.34a11.047,11.047,0,0,0,21.665-1.517c0.776-3.734,6.82-10.483,12.562-12.015C577.438,20.084,574.448,12.9,569.064,15.608ZM541.336,32.316a1.106,1.106,0,1,0-1.124-1.106A1.115,1.115,0,0,0,541.336,32.316ZM545.4,30.1a1.106,1.106,0,1,1-1.124,1.106A1.116,1.116,0,0,1,545.4,30.1Zm4.068,2.212a1.106,1.106,0,1,0-1.125-1.106A1.114,1.114,0,0,0,549.471,32.316Zm4.066-2.212a1.106,1.106,0,1,1-1.123,1.106A1.115,1.115,0,0,1,553.537,30.1Zm-10.167-.316a1.106,1.106,0,1,0-1.124-1.107A1.117,1.117,0,0,0,543.37,29.788Zm4.067,0a1.106,1.106,0,1,0-1.125-1.107A1.115,1.115,0,0,0,547.437,29.788Zm4.066,0a1.106,1.106,0,1,0-1.123-1.107A1.115,1.115,0,0,0,551.5,29.788Zm-6.1-2.529a1.106,1.106,0,1,0-1.124-1.106A1.116,1.116,0,0,0,545.4,27.259Zm4.068,0a1.106,1.106,0,1,0-1.125-1.106A1.115,1.115,0,0,0,549.471,27.259Zm-2.034-2.53a1.107,1.107,0,1,0-1.125-1.106A1.114,1.114,0,0,0,547.437,24.729Z" transform="translate(-538 -15)"/>
</svg>
