<svg xmlns="http://www.w3.org/2000/svg" width="140" height="38" viewBox="0 0 140 38">
  <defs>
    <style>
      .cls-1 {
        fill: #ee9c70;
        fill-rule: evenodd;
      }
    </style>
  </defs>
  <path id="ranking_ranking_title.svg" data-name="ranking/ranking_title.svg" class="cls-1" d="M1148.75,1861.29c0.02,0.25.05,0.5,0.07,0.76s0.04,0.54.04,0.8a11.484,11.484,0,0,1-.58,3.59,9.715,9.715,0,0,1-1.67,3.09,8.1,8.1,0,0,1-2.68,2.17,7.551,7.551,0,0,1-3.55.82,7.091,7.091,0,0,1-2.29-.36,5.6,5.6,0,0,1-1.87-1.07,5.106,5.106,0,0,1-1.27-1.72,5.436,5.436,0,0,1-.47-2.28,8.242,8.242,0,0,1,.92-3.84,12.326,12.326,0,0,1,2.44-3.24,17.526,17.526,0,0,1,3.51-2.59,25.36,25.36,0,0,1,4.07-1.88,26.353,26.353,0,0,1,4.23-1.16,20.7,20.7,0,0,1,3.88-.4q1.26,0,2.37.03c0.74,0.03,1.47.09,2.19,0.19a18.238,18.238,0,0,1,2.16.41c0.72,0.18,1.48.42,2.3,0.71a23.933,23.933,0,0,1,2.37-.74,8.661,8.661,0,0,1,2.23-.31v0.29a13.954,13.954,0,0,0-1.92.41,9.056,9.056,0,0,0-1.82.75,7.86,7.86,0,0,1,2.28,2.06,4.682,4.682,0,0,1,.96,2.9,5.318,5.318,0,0,1-.87,3.08,6.819,6.819,0,0,1-2.21,2.06,10.719,10.719,0,0,1-2.96,1.18,17.755,17.755,0,0,1-3.13.45v0.07a5.728,5.728,0,0,1,1.92,1.38,3.174,3.174,0,0,1,.85,2.28,7.853,7.853,0,0,1-.34,2.24c-0.23.75-.48,1.48-0.74,2.2s-0.51,1.39-.74,2.04a5.817,5.817,0,0,0-.34,1.85c0,0.75.28,1.12,0.83,1.12a4.925,4.925,0,0,0,2.48-.9,17.556,17.556,0,0,0,3.05-2.54c0.53-.53,1.04-1.09,1.53-1.66s0.96-1.15,1.4-1.69,0.84-1.06,1.19-1.54,0.64-.88.88-1.19l0.29,0.25c-0.6.85-1.31,1.79-2.12,2.83s-1.68,2.04-2.59,3a21.125,21.125,0,0,1-3.52,2.97,6.535,6.535,0,0,1-3.63,1.12,2.982,2.982,0,0,1-2.16-.76,2.659,2.659,0,0,1-.79-2.03,7.2,7.2,0,0,1,.45-2.42c0.3-.85.63-1.68,0.99-2.5s0.69-1.58.99-2.28a4.612,4.612,0,0,0,.45-1.7,2.719,2.719,0,0,0-.18-1.07,1.473,1.473,0,0,0-.53-0.6,2.306,2.306,0,0,0-.8-0.31c-0.32-.06-0.66-0.11-1.05-0.16l0.08-.29a9.548,9.548,0,0,0,1.07,0c0.36-.02.81-0.07,1.33-0.14a5.621,5.621,0,0,0,2.61-1.04,7.535,7.535,0,0,0,2.82-3.98,6.77,6.77,0,0,0,.32-1.9,5.158,5.158,0,0,0-.32-1.96,4.825,4.825,0,0,0-1.15-1.59,17.364,17.364,0,0,0-4.06,4.18c-1.15,1.66-2.24,3.4-3.25,5.22s-2.04,3.63-3.06,5.43a26.014,26.014,0,0,1-3.5,4.85,16.462,16.462,0,0,1-4.58,3.5,13.711,13.711,0,0,1-6.31,1.34,9.512,9.512,0,0,1-2.12-.26,6.849,6.849,0,0,1-2.03-.81,4.865,4.865,0,0,1-1.51-1.45,3.69,3.69,0,0,1-.59-2.12,2.992,2.992,0,0,1,.55-1.79,1.687,1.687,0,0,1,1.42-.78,2.115,2.115,0,0,1,1.3.43,1.426,1.426,0,0,1,.57,1.2,1.694,1.694,0,0,1-.36,1.14,1.531,1.531,0,0,1-1.04.49,3.232,3.232,0,0,0,1.02,2.71,4.387,4.387,0,0,0,2.79.8,7.309,7.309,0,0,0,3.59-.87,11.873,11.873,0,0,0,2.95-2.33,21.747,21.747,0,0,0,2.55-3.39q1.185-1.92,2.37-4.02t2.45-4.24a40.952,40.952,0,0,1,2.73-4.05,23.227,23.227,0,0,1,3.25-3.46,14.133,14.133,0,0,1,4.01-2.44,9.964,9.964,0,0,0-1.93-.77,16.813,16.813,0,0,0-2.01-.43,16.13,16.13,0,0,0-1.87-.18c-0.58-.02-1.09-0.04-1.52-0.04a19.758,19.758,0,0,0-11.11,3.61,15.015,15.015,0,0,0-3.95,4.12,9.72,9.72,0,0,0-1.55,5.35,4.441,4.441,0,0,0,1.12,3.16,3.978,3.978,0,0,0,3.09,1.22,5.018,5.018,0,0,0,2.82-.84,8.351,8.351,0,0,0,2.21-2.11,10.377,10.377,0,0,0,1.45-2.83,9.207,9.207,0,0,0,.53-2.99c0-.21-0.01-0.48-0.02-0.79s-0.03-.64-0.06-0.98Zm32.19,6.88,3.74-.21a15.665,15.665,0,0,1-.94,1.57c-0.41.62-.85,1.28-1.33,1.99s-0.96,1.45-1.45,2.21-0.95,1.5-1.35,2.21a16.652,16.652,0,0,0-.99,1.99,4.368,4.368,0,0,0-.38,1.58,0.8,0.8,0,0,0,.9.9,4.612,4.612,0,0,0,2.34-1.01,21.462,21.462,0,0,0,3.09-2.68c0.45-.46.91-0.95,1.38-1.48s0.92-1.06,1.35-1.58,0.82-1,1.18-1.45,0.65-.81.87-1.1l0.25,0.14c-0.62.85-1.34,1.78-2.16,2.81a38.777,38.777,0,0,1-2.94,3.28,22.633,22.633,0,0,1-3.4,2.84,5.947,5.947,0,0,1-3.32,1.1,2.515,2.515,0,0,1-1.78-.59,1.952,1.952,0,0,1-.63-1.47,4.626,4.626,0,0,1,.03-0.54,1.4,1.4,0,0,1,.11-0.4h-0.07a11.137,11.137,0,0,1-2.52,2.13,5.61,5.61,0,0,1-3.02.87,3.189,3.189,0,0,1-1.47-.32,2.744,2.744,0,0,1-.99-0.89,4.043,4.043,0,0,1-.55-1.27,5.9,5.9,0,0,1-.18-1.46,7.28,7.28,0,0,1,.97-3.55,13.3,13.3,0,0,1,2.44-3.21,12.984,12.984,0,0,1,3.29-2.32,7.888,7.888,0,0,1,3.47-.88,3.2,3.2,0,0,1,1.97.54,3.877,3.877,0,0,1,1.19,1.7Zm-10.78,9.27a4.494,4.494,0,0,0,.34,1.83,1.414,1.414,0,0,0,1.45.78,2.9,2.9,0,0,0,1.58-.63,8.926,8.926,0,0,0,1.6-1.5,18.654,18.654,0,0,0,1.48-2.01,21.276,21.276,0,0,0,1.22-2.23,17.694,17.694,0,0,0,.83-2.12,5.971,5.971,0,0,0,.3-1.68,2.711,2.711,0,0,0-.36-1.52,1.551,1.551,0,0,0-1.4-.55,3.208,3.208,0,0,0-1.67.51,7.58,7.58,0,0,0-1.62,1.34,16.74,16.74,0,0,0-1.47,1.86,15.566,15.566,0,0,0-1.21,2.12,17.063,17.063,0,0,0-.79,2.08A6.421,6.421,0,0,0,1170.16,1877.44Zm19.86-2.97c0.33-.43.82-1.05,1.45-1.84a23.612,23.612,0,0,1,2.18-2.36,16.347,16.347,0,0,1,2.62-2.02,5.294,5.294,0,0,1,2.8-.87,2.206,2.206,0,0,1,2.41,2.31,4.91,4.91,0,0,1-.77,2.52c-0.52.86-1.08,1.72-1.71,2.57s-1.19,1.68-1.7,2.47a4.005,4.005,0,0,0-.78,2.19,1.1,1.1,0,0,0,.22.7,0.859,0.859,0,0,0,.72.27,3.9,3.9,0,0,0,1.67-.77,20.277,20.277,0,0,0,3.14-2.88q1.545-1.665,2.84-3.24c0.86-1.06,1.51-1.84,1.94-2.38l0.36,0.18c-0.62.75-1.39,1.68-2.3,2.79s-1.88,2.21-2.91,3.3a17.2,17.2,0,0,1-3.18,2.82,4.955,4.955,0,0,1-2.71.84,2.514,2.514,0,0,1-2.01-.76,2.58,2.58,0,0,1-.65-1.74,5.033,5.033,0,0,1,.77-2.54,27.671,27.671,0,0,1,1.71-2.55q0.93-1.245,1.71-2.37a3.665,3.665,0,0,0,.77-1.96,0.923,0.923,0,0,0-.25-0.65,1.025,1.025,0,0,0-.76-0.25,3.111,3.111,0,0,0-1.69.67,15.461,15.461,0,0,0-2.05,1.73c-0.71.72-1.45,1.53-2.19,2.43s-1.44,1.81-2.1,2.72-1.25,1.78-1.78,2.62-0.95,1.57-1.26,2.17l-3.63.11q1.9-3.18,3.83-6.32c1.28-2.08,2.55-4.23,3.79-6.42l4.1-.15-4.67,6.59Zm25.83-18.97,3.95-.22q-3.06,4.89-6.04,9.69t-6.18,9.54l0.07,0.07c0.55-.65,1.19-1.38,1.91-2.21a28.542,28.542,0,0,1,2.32-2.35,13.675,13.675,0,0,1,2.58-1.88,5.521,5.521,0,0,1,2.75-.76,2.278,2.278,0,0,1,1.71.61,2.135,2.135,0,0,1,.59,1.56,2.9,2.9,0,0,1-.41,1.58,3.669,3.669,0,0,1-1.2,1.1,10.027,10.027,0,0,1-1.93.85c-0.75.25-1.6,0.51-2.53,0.78v0.07a1.651,1.651,0,0,1,1.06.74,2.244,2.244,0,0,1,.45,1.29,5.677,5.677,0,0,1-.36,2.01,5.133,5.133,0,0,0-.36,1.79,0.539,0.539,0,0,0,.57.65,3.97,3.97,0,0,0,2.23-.96,22.864,22.864,0,0,0,2.68-2.35q1.38-1.395,2.7-2.97c0.87-1.05,1.62-1.98,2.24-2.81l0.33,0.19c-0.75.94-1.57,1.98-2.48,3.11a38.36,38.36,0,0,1-2.88,3.19,18.105,18.105,0,0,1-3.13,2.48,6.11,6.11,0,0,1-3.23.99,2.162,2.162,0,0,1-1.71-.63,2.349,2.349,0,0,1-.55-1.61,5.351,5.351,0,0,1,.52-2.08c0.34-.81.79-1.8,1.34-2.96-0.4.13-.83,0.25-1.29,0.38a3.9,3.9,0,0,1-1.11.2,0.533,0.533,0,0,1-.65-0.54,0.55,0.55,0,0,1,.25-0.47,1.809,1.809,0,0,1,.97-0.18,6.248,6.248,0,0,1,1.15.11,6.879,6.879,0,0,0,.9.11,2.58,2.58,0,0,0,.79-0.22,4.43,4.43,0,0,0,1.08-.65,4.2,4.2,0,0,0,.93-1.07,2.735,2.735,0,0,0,.4-1.5,1.72,1.72,0,0,0-.31-1.07,0.945,0.945,0,0,0-.81-0.42,3.3,3.3,0,0,0-1.77.67,15.872,15.872,0,0,0-2.09,1.74,27.658,27.658,0,0,0-2.19,2.41c-0.73.89-1.42,1.78-2.05,2.66s-1.2,1.71-1.71,2.5-0.88,1.43-1.15,1.93l-3.48.11Zm13.88,12.46q-1.68,2.67-2.91,4.58c-0.81,1.26-1.48,2.35-1.99,3.24a22.263,22.263,0,0,0-1.15,2.19,3.689,3.689,0,0,0-.38,1.39,1.358,1.358,0,0,0,.16.71,0.535,0.535,0,0,0,.49.27,4.379,4.379,0,0,0,2.03-.83,20.646,20.646,0,0,0,3.29-2.86c0.52-.56,1.04-1.11,1.54-1.65s0.98-1.07,1.42-1.58,0.84-.96,1.19-1.37,0.63-.74.84-0.98l0.32,0.22c-0.28.39-.64,0.83-1.06,1.32s-0.86,1.01-1.34,1.56-0.97,1.08-1.48,1.61-0.99,1.04-1.47,1.52a17.124,17.124,0,0,1-3.58,2.93,5.662,5.662,0,0,1-2.75.84,2.442,2.442,0,0,1-1.83-.66,2.307,2.307,0,0,1-.65-1.7,4.857,4.857,0,0,1,.27-1.5,12.786,12.786,0,0,1,.92-1.94c0.43-.77,1.01-1.73,1.73-2.88s1.61-2.56,2.69-4.25Zm2.09-8.04a1.706,1.706,0,0,1,1.2.5,1.614,1.614,0,0,1,.52,1.2,1.879,1.879,0,0,1-.57,1.32,1.777,1.777,0,0,1-1.3.6,2.243,2.243,0,0,1-1.36-.42,1.416,1.416,0,0,1-.58-1.25,1.785,1.785,0,0,1,.63-1.39A2.153,2.153,0,0,1,1231.82,1859.92Zm3.13,14.55c0.34-.43.83-1.05,1.46-1.84a23.473,23.473,0,0,1,2.17-2.36,16.423,16.423,0,0,1,2.63-2.02,5.268,5.268,0,0,1,2.8-.87,2.31,2.31,0,0,1,1.8.67,2.36,2.36,0,0,1,.61,1.64,4.91,4.91,0,0,1-.77,2.52c-0.52.86-1.09,1.72-1.71,2.57s-1.19,1.68-1.71,2.47a4.066,4.066,0,0,0-.77,2.19,1.1,1.1,0,0,0,.21.7,0.886,0.886,0,0,0,.72.27,3.8,3.8,0,0,0,1.67-.77,20.709,20.709,0,0,0,3.15-2.88q1.545-1.665,2.84-3.24c0.86-1.06,1.51-1.84,1.94-2.38l0.36,0.18c-0.62.75-1.39,1.68-2.3,2.79s-1.88,2.21-2.91,3.3a17.868,17.868,0,0,1-3.18,2.82,4.987,4.987,0,0,1-2.72.84,2.514,2.514,0,0,1-2.01-.76,2.63,2.63,0,0,1-.65-1.74,4.954,4.954,0,0,1,.78-2.54,27.553,27.553,0,0,1,1.7-2.55q0.945-1.245,1.71-2.37a3.585,3.585,0,0,0,.77-1.96,0.882,0.882,0,0,0-.25-0.65,1.015,1.015,0,0,0-.75-0.25,3.084,3.084,0,0,0-1.69.67,14.849,14.849,0,0,0-2.05,1.73q-1.08,1.08-2.19,2.43c-0.75.91-1.45,1.81-2.1,2.72s-1.26,1.78-1.78,2.62-0.95,1.57-1.26,2.17l-3.63.11q1.9-3.18,3.83-6.32c1.28-2.08,2.54-4.23,3.79-6.42l4.09-.15-4.67,6.59Zm7.73,9.13a3.828,3.828,0,0,0-2.86,1.05,4,4,0,0,0-.95,2.83,4.51,4.51,0,0,0,.29,1.61,3.774,3.774,0,0,0,.81,1.28,3.6,3.6,0,0,0,1.26.85,4.18,4.18,0,0,0,1.67.31,7.565,7.565,0,0,0,3.19-.69,12.1,12.1,0,0,0,2.86-1.84,21.233,21.233,0,0,0,2.55-2.63c0.81-.98,1.56-1.98,2.27-3s1.37-2.05,1.99-3.06,1.21-1.92,1.76-2.72l-0.07-.07a13.113,13.113,0,0,1-1.27,1.32,10.467,10.467,0,0,1-1.48,1.12,7.871,7.871,0,0,1-1.65.8,5.745,5.745,0,0,1-1.85.31,2.65,2.65,0,0,1-2.25-1.04,3.912,3.912,0,0,1-.77-2.4,8.124,8.124,0,0,1,.9-3.61,12.444,12.444,0,0,1,2.33-3.29,12.9,12.9,0,0,1,3.24-2.41,7.585,7.585,0,0,1,3.56-.94,4.023,4.023,0,0,1,2.15.5,3.261,3.261,0,0,1,1.22,1.85l0.83-1.56,3.67-.21q-1.95,3.33-3.81,6.73t-3.96,6.77a14.746,14.746,0,0,0,3.76-1.66,23.06,23.06,0,0,0,3.27-2.48,29.216,29.216,0,0,0,2.87-3.01c0.9-1.07,1.76-2.15,2.57-3.24l0.22,0.11a40.757,40.757,0,0,1-2.61,3.42,29.9,29.9,0,0,1-3.03,3.13,22.994,22.994,0,0,1-3.45,2.56,15.885,15.885,0,0,1-3.88,1.68,25.164,25.164,0,0,1-2.93,4.09,18.606,18.606,0,0,1-3.58,3.15,16.315,16.315,0,0,1-4.2,2.03,15.938,15.938,0,0,1-4.85.73,12.681,12.681,0,0,1-2.52-.24,6.287,6.287,0,0,1-2.1-.8,4.282,4.282,0,0,1-1.46-1.44,4.2,4.2,0,0,1-.54-2.2,3.622,3.622,0,0,1,.42-1.75,3.964,3.964,0,0,1,1.09-1.31,4.934,4.934,0,0,1,1.57-.79,5.988,5.988,0,0,1,1.77-.27,8.833,8.833,0,0,1,.97.07c0.44,0.05.77,0.08,1.01,0.11v0.25Zm8.95-6.26a3.931,3.931,0,0,0,.36,1.77,1.586,1.586,0,0,0,1.58.72,2.771,2.771,0,0,0,1.55-.54,8.488,8.488,0,0,0,1.54-1.39,16.02,16.02,0,0,0,1.44-1.94,19.306,19.306,0,0,0,1.18-2.17,13.976,13.976,0,0,0,.79-2.09,5.911,5.911,0,0,0,.29-1.68,6.807,6.807,0,0,0-.05-0.78,2.584,2.584,0,0,0-.2-0.7,1.25,1.25,0,0,0-.43-0.53,1.4,1.4,0,0,0-.79-0.2,4.258,4.258,0,0,0-2.63,1.03,11.555,11.555,0,0,0-2.31,2.54,15.487,15.487,0,0,0-1.67,3.13A7.718,7.718,0,0,0,1251.63,1877.34Z" transform="translate(-1131 -1853.97)"/>
</svg>
