<svg xmlns="http://www.w3.org/2000/svg" width="219" height="46" viewBox="0 0 219 46">
  <defs>
    <style>
      .cls-1 {
        fill: #fff;
        fill-rule: evenodd;
      }
    </style>
  </defs>
  <path id="feature_feature_title.svg" data-name="feature/feature_title.svg" class="cls-1" d="M691.347,1302.19v-0.77h3.2a51.339,51.339,0,0,1,4.06-6.69,32.131,32.131,0,0,1,4.954-5.45,28.36,28.36,0,0,1,6.106-4.04,29.958,29.958,0,0,1,7.512-2.49v-0.13q-4.22,0-8.343-.12t-8.343-.13q-3.006,0-6.585.22t-7.224.8a58.073,58.073,0,0,0-7,1.53,27.828,27.828,0,0,0-5.977,2.42,13.686,13.686,0,0,0-4.188,3.47,7.489,7.489,0,0,0-1.566,4.75,5.118,5.118,0,0,0,1.023,3.19,8.2,8.2,0,0,0,2.557,2.19,11.73,11.73,0,0,0,3.356,1.25,17.04,17.04,0,0,0,3.421.38,21.739,21.739,0,0,0,6.137-.83,13.811,13.811,0,0,0,4.827-2.45,11.393,11.393,0,0,0,3.132-3.95,12.3,12.3,0,0,0,1.119-5.39v-1.08a3.551,3.551,0,0,0-.064-0.7h0.768c0,0.34.009,0.66,0.031,0.95s0.033,0.6.033,0.9a14.335,14.335,0,0,1-1.311,6.08,15.462,15.462,0,0,1-3.548,4.91,17.357,17.357,0,0,1-5.147,3.28,15.837,15.837,0,0,1-6.169,1.21,13.3,13.3,0,0,1-3.932-.6,11.886,11.886,0,0,1-3.516-1.76,8.833,8.833,0,0,1-2.525-2.86,7.881,7.881,0,0,1-.959-3.89,9.876,9.876,0,0,1,1.758-6.02,17.72,17.72,0,0,1,4.379-4.18,37.883,37.883,0,0,1,8.279-4.3,54.562,54.562,0,0,1,8.983-2.48,74.2,74.2,0,0,1,9.3-1.15q4.7-.285,9.109-0.29c1.748,0,3.559.05,5.435,0.13s3.676,0.18,5.4.29,3.3,0.2,4.731.28,2.589,0.15,3.484.19a4.854,4.854,0,0,1,2.461.58,2.01,2.01,0,0,1,.735,1.78,1.919,1.919,0,0,1-1.246,1.72,9.209,9.209,0,0,1-4,.64c-1.321,0-2.632-.05-3.931-0.16s-2.633-.16-4-0.16a8.068,8.068,0,0,0-3.772.93,15.636,15.636,0,0,0-3.453,2.45,24.849,24.849,0,0,0-3.1,3.47c-0.959,1.3-1.854,2.61-2.685,3.95s-1.588,2.66-2.27,3.95-1.278,2.44-1.79,3.41c0.809-.08,1.673-0.13,2.59-0.16a11.162,11.162,0,0,0,2.621-.35,6.973,6.973,0,0,0,2.269-1.02,4.143,4.143,0,0,0,1.534-2.04c1.151-.08,2.312-0.14,3.485-0.19s2.333-.06,3.484-0.06c-1.406,1.06-2.824,2.16-4.252,3.28a48.228,48.228,0,0,0-4.059,3.6,34,34,0,0,0-3.484,4.08,22.549,22.549,0,0,0-2.589,4.65h-0.512a47.758,47.758,0,0,1,2.429-6.02,53.55,53.55,0,0,1,3.133-5.58c-0.427.09-.949,0.16-1.566,0.23s-1.258.12-1.918,0.16-1.3.08-1.918,0.12-1.141.07-1.566,0.07q-2.559,4.14-5.275,8.03a38.782,38.782,0,0,1-6.073,6.85,27.494,27.494,0,0,1-7.576,4.74,24.937,24.937,0,0,1-9.781,1.79,20.336,20.336,0,0,1-4.188-.48,16.34,16.34,0,0,1-4.219-1.5,10.043,10.043,0,0,1-3.261-2.67,6.3,6.3,0,0,1-1.311-4.02,4.917,4.917,0,0,1,1.087-3.15,3.409,3.409,0,0,1,2.813-1.37,3.583,3.583,0,0,1,2.366.79,2.8,2.8,0,0,1,.959,2.27,3.2,3.2,0,0,1-.576,1.81,2.283,2.283,0,0,1-1.79.99,7.7,7.7,0,0,0,.8,3.06,5.554,5.554,0,0,0,1.791,2.04,7.61,7.61,0,0,0,2.589,1.11,12.852,12.852,0,0,0,3.069.35,13.77,13.77,0,0,0,7.543-2.07,25.3,25.3,0,0,0,5.85-5.16,46.13,46.13,0,0,0,4.667-6.72q2.076-3.63,4-6.69h-2.814Zm50.935,4.08q-1.983,2.67-4.252,5.28a67.917,67.917,0,0,1-5.4,5.49,27.025,27.025,0,0,1-8.471,5.44,22.093,22.093,0,0,1-7.639,1.5,7.359,7.359,0,0,1-7.864-7.77,11.415,11.415,0,0,1,1.854-6.06,22.272,22.272,0,0,1,4.667-5.35,25.483,25.483,0,0,1,6.169-3.82,15.877,15.877,0,0,1,6.361-1.47,7.518,7.518,0,0,1,4.284,1.05,3.39,3.39,0,0,1,1.534,2.97,4.285,4.285,0,0,1-1.055,2.8,10.818,10.818,0,0,1-2.717,2.29,21.06,21.06,0,0,1-3.74,1.79c-1.386.51-2.76,0.95-4.123,1.34s-2.643.7-3.836,0.95-2.174.47-2.941,0.64a9.455,9.455,0,0,0-.32,2.29,6.431,6.431,0,0,0,1.535,4.46,5.431,5.431,0,0,0,4.283,1.72,13.548,13.548,0,0,0,5.914-1.59,27.188,27.188,0,0,0,6.489-4.65q2.493-2.355,4.8-4.94t4.027-4.81Zm-13.873-4.34a1.526,1.526,0,0,0-.48-1.27,1.908,1.908,0,0,0-1.247-.38,6.023,6.023,0,0,0-3.452,1.33,19.531,19.531,0,0,0-3.484,3.29,29.2,29.2,0,0,0-2.877,4.07,14.5,14.5,0,0,0-1.63,3.73,19.307,19.307,0,0,0,4.986-1.69,21.687,21.687,0,0,0,4.188-2.67,13.9,13.9,0,0,0,2.909-3.19A5.98,5.98,0,0,0,728.409,1301.93Zm31.894-1.02,6.65-.38a25.953,25.953,0,0,1-1.663,2.77c-0.725,1.09-1.513,2.25-2.366,3.51s-1.715,2.55-2.588,3.88-1.673,2.64-2.4,3.89a29.141,29.141,0,0,0-1.758,3.51,7.475,7.475,0,0,0-.671,2.77,1.409,1.409,0,0,0,1.6,1.59,8.289,8.289,0,0,0,4.155-1.78,36.949,36.949,0,0,0,5.5-4.72c0.809-.8,1.63-1.68,2.461-2.61s1.63-1.86,2.4-2.77,1.471-1.76,2.11-2.55,1.151-1.44,1.534-1.95l0.448,0.26c-1.109,1.49-2.388,3.13-3.836,4.94a71.885,71.885,0,0,1-5.243,5.77,39.257,39.257,0,0,1-6.041,5,10.8,10.8,0,0,1-5.913,1.94,4.446,4.446,0,0,1-3.165-1.05,3.4,3.4,0,0,1-1.119-2.58,6.775,6.775,0,0,1,.064-0.96,2.355,2.355,0,0,1,.192-0.7h-0.128a19.769,19.769,0,0,1-4.475,3.76,10.087,10.087,0,0,1-5.37,1.53,5.585,5.585,0,0,1-2.622-.57,4.745,4.745,0,0,1-1.757-1.56,7.149,7.149,0,0,1-.992-2.23,10.385,10.385,0,0,1-.319-2.58,12.8,12.8,0,0,1,1.726-6.25,23.706,23.706,0,0,1,4.347-5.64,22.552,22.552,0,0,1,5.85-4.08,14.182,14.182,0,0,1,6.169-1.56,5.738,5.738,0,0,1,3.516.96,6.787,6.787,0,0,1,2.11,2.99Zm-19.179,16.32a7.824,7.824,0,0,0,.608,3.21,2.517,2.517,0,0,0,2.589,1.37,5.312,5.312,0,0,0,2.813-1.11,16.4,16.4,0,0,0,2.845-2.64,32.484,32.484,0,0,0,2.621-3.54,34.359,34.359,0,0,0,2.174-3.92,29.529,29.529,0,0,0,1.47-3.73,10.313,10.313,0,0,0,.543-2.96,4.8,4.8,0,0,0-.639-2.68,2.793,2.793,0,0,0-2.493-.95,5.736,5.736,0,0,0-2.973.89,13.012,13.012,0,0,0-2.877,2.36,27.1,27.1,0,0,0-2.621,3.28,26.433,26.433,0,0,0-2.142,3.72,25.794,25.794,0,0,0-1.407,3.67A11.082,11.082,0,0,0,741.124,1317.23Zm30.982-15.55,0.447-1.15h4.923l4.794-8.03,6.9-.25-5.306,8.28h8.119l-0.576,1.15h-8.247q-2.875,4.71-4.858,7.93t-3.165,5.35c-0.789,1.43-1.364,2.56-1.726,3.41a5.846,5.846,0,0,0-.544,2.23,1.948,1.948,0,0,0,.448,1.34,1.61,1.61,0,0,0,1.278.51,8.811,8.811,0,0,0,4.22-1.62,35.372,35.372,0,0,0,5.626-4.5q2.046-2.04,4.475-4.78t4.539-5.54l0.384,0.32c-0.981,1.27-2.217,2.83-3.708,4.65a72.235,72.235,0,0,1-4.923,5.42c-0.981.98-1.992,1.9-3.037,2.77a26.712,26.712,0,0,1-3.164,2.29,18.449,18.449,0,0,1-3.133,1.57,8.593,8.593,0,0,1-3,.57,6.773,6.773,0,0,1-3.58-.93,3.426,3.426,0,0,1-1.534-3.21,9.129,9.129,0,0,1,.7-3.41,28.455,28.455,0,0,1,1.95-3.86q1.247-2.1,2.909-4.65t3.58-5.86h-4.794Zm45.646-1.4q-2.493,4.14-4.635,7.39c-1.429,2.16-2.653,4.09-3.676,5.76a46.858,46.858,0,0,0-2.4,4.37,7.886,7.886,0,0,0-.862,3.25,1.163,1.163,0,0,0,1.214,1.4,4.339,4.339,0,0,0,1.854-.54,17.938,17.938,0,0,0,2.3-1.4,28.4,28.4,0,0,0,2.493-2.01c0.852-.76,1.662-1.53,2.429-2.29q1.406-1.47,2.782-2.97c0.915-.99,1.768-1.96,2.557-2.9s1.5-1.79,2.142-2.58,1.171-1.45,1.6-2l0.511,0.38q-1.535,2.04-3.9,4.87t-5.05,5.58a39.971,39.971,0,0,1-6.01,5.16,9.733,9.733,0,0,1-5.434,1.85,4.135,4.135,0,0,1-3.068-1.15,3.875,3.875,0,0,1-1.152-2.87,9.551,9.551,0,0,1,.224-2.16,4.917,4.917,0,0,1,.544-1.47l-0.128-.13c-0.767.81-1.6,1.67-2.494,2.59a24.753,24.753,0,0,1-2.876,2.51,16.176,16.176,0,0,1-3.293,1.91,9.432,9.432,0,0,1-3.8.77,3.689,3.689,0,0,1-3-1.24,4.438,4.438,0,0,1-1.023-2.9c0-1.62.874-3.95,2.621-7.01s4.112-7.03,7.1-11.92l6.776-.25q-5.052,7.71-8.215,12.64-3.165,4.95-3.165,7.36a1.943,1.943,0,0,0,.416,1.28,1.367,1.367,0,0,0,1.119.51,5.915,5.915,0,0,0,2.908-1.02,21.822,21.822,0,0,0,3.548-2.74,39.3,39.3,0,0,0,3.677-3.95,41.742,41.742,0,0,0,3.292-4.65l5.5-8.92Zm-3.3,22.68q3.261-5.61,6.617-11.15t6.681-11.28l7.288-.25-8.439,11.85,0.128,0.13a55.222,55.222,0,0,1,4.315-4.82c1.257-1.21,2.354-2.19,3.293-2.96a25.408,25.408,0,0,1,2.365-1.75,8.155,8.155,0,0,0,1.407-1.05,9.536,9.536,0,0,1,1.31-1.12,4.615,4.615,0,0,1,1.439-.63,9.649,9.649,0,0,1,2.014-.29c0.787-.04,1.779-0.09,2.972-0.13a36.914,36.914,0,0,0-2.237,3.6,8.339,8.339,0,0,0-1.023,4.05,2.428,2.428,0,0,0,2.749,2.74,4.376,4.376,0,0,0,1.758-.38,8.8,8.8,0,0,0,1.63-.96,16.767,16.767,0,0,0,1.47-1.24c0.469-.45.895-0.86,1.279-1.25l0.256,0.32a15.032,15.032,0,0,1-4.22,3.64,10.475,10.475,0,0,1-5.306,1.4,5.768,5.768,0,0,1-4.027-1.34,5.069,5.069,0,0,1-1.471-3.95,5.569,5.569,0,0,1,.959-3.12l-0.128-.13a35.884,35.884,0,0,0-5.114,4.14,51.836,51.836,0,0,0-4.507,4.97,61.307,61.307,0,0,0-3.836,5.39c-1.173,1.84-2.228,3.64-3.165,5.38ZM878,1306.27q-1.983,2.67-4.252,5.28a67.917,67.917,0,0,1-5.4,5.49,27.025,27.025,0,0,1-8.471,5.44,22.1,22.1,0,0,1-7.64,1.5,7.357,7.357,0,0,1-7.863-7.77,11.415,11.415,0,0,1,1.854-6.06,22.272,22.272,0,0,1,4.667-5.35,25.464,25.464,0,0,1,6.169-3.82,15.877,15.877,0,0,1,6.361-1.47,7.518,7.518,0,0,1,4.284,1.05,3.392,3.392,0,0,1,1.534,2.97,4.29,4.29,0,0,1-1.055,2.8,10.818,10.818,0,0,1-2.717,2.29,21.06,21.06,0,0,1-3.74,1.79c-1.386.51-2.76,0.95-4.123,1.34s-2.643.7-3.836,0.95-2.174.47-2.941,0.64a9.455,9.455,0,0,0-.32,2.29,6.431,6.431,0,0,0,1.535,4.46,5.431,5.431,0,0,0,4.283,1.72,13.548,13.548,0,0,0,5.914-1.59,27.165,27.165,0,0,0,6.488-4.65q2.495-2.355,4.795-4.94t4.028-4.81Zm-13.874-4.34a1.526,1.526,0,0,0-.479-1.27,1.91,1.91,0,0,0-1.247-.38,6.02,6.02,0,0,0-3.452,1.33,19.531,19.531,0,0,0-3.484,3.29,29.2,29.2,0,0,0-2.877,4.07,14.5,14.5,0,0,0-1.63,3.73,19.307,19.307,0,0,0,4.986-1.69,21.687,21.687,0,0,0,4.188-2.67,13.9,13.9,0,0,0,2.909-3.19A5.978,5.978,0,0,0,864.127,1301.93Z" transform="translate(-659 -1277.97)"/>
</svg>
