<svg id="cover_cover_scroll.svg" data-name="cover/cover_scroll.svg" xmlns="http://www.w3.org/2000/svg" width="20.66" height="160" viewBox="0 0 20.66 160">
  <defs>
    <style>
      .cls-1, .cls-2 {
        fill: #333;
      }

      .cls-1, .cls-3 {
        fill-rule: evenodd;
      }

      .cls-3 {
        fill: #fefafa;
      }
    </style>
  </defs>
  <g id="cover_scroll_arrow">
    <path id="arrow_line" class="cls-1" d="M1847.13,624.643l1.74,1-16,27.713-1.74-1Z" transform="translate(-1831 -494)"/>
    <rect id="arrow_line-2" data-name="arrow_line" class="cls-2" width="2" height="160"/>
  </g>
  <path id="SCROLL" class="cls-3" d="M1840.9,499.179c0,2.4,1.45,3.81,3.14,3.81a2.87,2.87,0,0,0,2.82-2.087l0.57-1.359c0.35-.882.62-1.611,1.36-1.611a1.232,1.232,0,0,1,1.09,1.485,3.331,3.331,0,0,1-.85,2.2l1.3,1.051a4.618,4.618,0,0,0,1.33-3.25c0-2.1-1.3-3.586-3-3.586a2.992,2.992,0,0,0-2.78,2.1l-0.59,1.387c-0.4.925-.63,1.555-1.4,1.555-0.73,0-1.19-.574-1.19-1.653a4.1,4.1,0,0,1,1.14-2.633l-1.42-1.191A5.515,5.515,0,0,0,1840.9,499.179Zm0,14.071a4.178,4.178,0,0,0,1.53,3.3l1.29-1.092a2.865,2.865,0,0,1-1.02-2.143c0-1.639,1.35-2.7,3.61-2.7,2.23,0,3.57,1.177,3.57,2.746a2.711,2.711,0,0,1-.87,1.919l1.32,1.078a4.227,4.227,0,0,0,1.33-3.039c0-2.62-2-4.819-5.42-4.819C1842.78,508.5,1840.9,510.63,1840.9,513.25Zm0.2,9.167v2.074h3.92v1.442l-3.92,2.129v2.312l4.24-2.424a2.977,2.977,0,0,0,2.99,1.975c2.38,0,3.15-1.722,3.15-3.894v-3.614H1841.1Zm5.56,2.074h3.17v1.344c0,1.331-.38,2.073-1.5,2.073s-1.67-.742-1.67-2.073v-1.344Zm-5.76,15.793c0,2.745,2.06,4.636,5.42,4.636s5.34-1.891,5.34-4.636-1.96-4.637-5.34-4.637C1842.96,535.647,1840.9,537.538,1840.9,540.284Zm1.8,0c0-1.541,1.41-2.522,3.62-2.522,2.23,0,3.56.981,3.56,2.522s-1.33,2.521-3.56,2.521C1844.11,542.8,1842.7,541.825,1842.7,540.284Zm-1.6,10.861v6.29h1.74v-4.216h8.64v-2.074H1841.1Zm0,12.292v6.29h1.74V565.51h8.64v-2.073H1841.1Z" transform="translate(-1831 -494)"/>
</svg>
