<svg xmlns="http://www.w3.org/2000/svg" width="137" height="43" viewBox="0 0 137 43">
  <defs>
    <style>
      .cls-1 {
        fill: #fff;
        fill-rule: evenodd;
      }
    </style>
  </defs>
  <path id="cover_cover_pickup.svg" data-name="cover/cover_pickup.svg" class="cls-1" d="M639.887,283.32a14.692,14.692,0,0,0-2.356.6,16.7,16.7,0,0,0-2.236.96,8.556,8.556,0,0,1,3.375,2.48,6.09,6.09,0,0,1,1.3,3.96,5.75,5.75,0,0,1-.858,3.1,8.175,8.175,0,0,1-2.2,2.34,10.538,10.538,0,0,1-2.975,1.48,10.4,10.4,0,0,1-3.155.52,4.187,4.187,0,0,1-2.515-.72,2.117,2.117,0,0,1-1-1.76,1.886,1.886,0,0,1,.578-1.38,2.183,2.183,0,0,1,1.618-.58,3.523,3.523,0,0,1,1,.12,2.979,2.979,0,0,1,.719.32,3.445,3.445,0,0,0-1.178.96,2.02,2.02,0,0,0-.419,1.24,1.205,1.205,0,0,0,.4,1,1.422,1.422,0,0,0,.918.32,3.232,3.232,0,0,0,2.1-.86,9.568,9.568,0,0,0,1.837-2.12,11.659,11.659,0,0,0,1.3-2.72,8.714,8.714,0,0,0,.479-2.7,7.113,7.113,0,0,0-.459-2.66,3.69,3.69,0,0,0-1.618-1.82,18.253,18.253,0,0,0-4.133,3.98,53.118,53.118,0,0,0-3.434,5.1q-1.619,2.721-3.234,5.52a43.065,43.065,0,0,1-3.555,5.24,24.77,24.77,0,0,1-4.333,4.28,14.579,14.579,0,0,1-5.63,2.6v0.08q0.6,0.12,1.418.26t1.657,0.26q0.838,0.12,1.657.18t1.457,0.06a25.841,25.841,0,0,0,11.4-2.5,23.871,23.871,0,0,0,9-7.86l0.28,0.16a41.379,41.379,0,0,1-3.434,4.46,20.563,20.563,0,0,1-3.954,3.46,17.626,17.626,0,0,1-4.752,2.22,20.547,20.547,0,0,1-5.91.78q-1.039,0-2.276-.1t-2.516-.28q-1.278-.18-2.5-0.4t-2.216-.5q-0.639.2-1.5,0.4t-1.757.34q-0.9.139-1.778,0.22t-1.6.08a12.674,12.674,0,0,1-1.717-.12,10.233,10.233,0,0,1-1.6-.34,3.608,3.608,0,0,1-1.159-.56,0.95,0.95,0,0,1-.439-0.74q0-.96,2-0.96a16.438,16.438,0,0,1,2.656.22q1.337,0.22,2.535.46t2.136,0.46a6.854,6.854,0,0,0,1.459.22,7.152,7.152,0,0,0,4.052-1.98,21.953,21.953,0,0,0,3.295-4.1q1.559-2.439,3.115-5.4a61.95,61.95,0,0,1,3.534-5.88,38.416,38.416,0,0,1,4.532-5.5,22.187,22.187,0,0,1,6.07-4.3v-0.08a15.671,15.671,0,0,0-2.136-.38,25.882,25.882,0,0,0-2.895-.14,19.588,19.588,0,0,0-4.133.48,26.369,26.369,0,0,0-4.453,1.4,26.642,26.642,0,0,0-4.313,2.26,19.773,19.773,0,0,0-3.694,3.06,14.171,14.171,0,0,0-2.575,3.8,10.574,10.574,0,0,0-.959,4.479,8.117,8.117,0,0,0,.16,1.6,4.767,4.767,0,0,0,.539,1.46,2.981,2.981,0,0,0,1.018,1.06,2.876,2.876,0,0,0,1.558.4,4.616,4.616,0,0,0,2.715-.84,8.226,8.226,0,0,0,2.037-2.04,9.831,9.831,0,0,0,1.278-2.52,7.509,7.509,0,0,0,.439-2.32v-0.84a5.4,5.4,0,0,0-.08-0.96h0.479c0.026,0.267.047,0.52,0.06,0.76s0.02,0.547.02,0.92a8.7,8.7,0,0,1-.559,2.92,9.432,9.432,0,0,1-1.637,2.86,8.918,8.918,0,0,1-2.676,2.16,7.709,7.709,0,0,1-3.714.86,4.355,4.355,0,0,1-2.016-.46,4.765,4.765,0,0,1-1.537-1.24,5.36,5.36,0,0,1-.959-1.76,6.6,6.6,0,0,1-.32-2.06,8.446,8.446,0,0,1,1.1-4.12,15.99,15.99,0,0,1,2.935-3.78,24.037,24.037,0,0,1,4.233-3.24,35.052,35.052,0,0,1,4.992-2.52,33.538,33.538,0,0,1,5.231-1.66,22.2,22.2,0,0,1,4.911-.6,23,23,0,0,1,3.075.18q1.319,0.18,2.716.5,1.238-.48,2.795-0.94a15.141,15.141,0,0,1,2.835-.58Zm3.674,15.64q-1.877,2.961-3.235,5.06t-2.216,3.58a27.032,27.032,0,0,0-1.278,2.42,4.015,4.015,0,0,0-.419,1.54,1.5,1.5,0,0,0,.18.78,0.587,0.587,0,0,0,.539.3,4.808,4.808,0,0,0,2.256-.92,22.2,22.2,0,0,0,3.654-3.16q0.877-.92,1.717-1.82t1.577-1.74q0.739-.84,1.318-1.52t0.938-1.08l0.36,0.24q-0.48.641-1.178,1.46t-1.5,1.72q-0.8.9-1.637,1.78T643,309.28a19.376,19.376,0,0,1-3.973,3.24,6.382,6.382,0,0,1-3.055.92,2.753,2.753,0,0,1-2.037-.72,2.545,2.545,0,0,1-.719-1.88,5.035,5.035,0,0,1,.3-1.66,13.994,13.994,0,0,1,1.018-2.14q0.719-1.28,1.917-3.18t3-4.7Zm2.316-8.88a1.869,1.869,0,0,1,1.338.56,1.783,1.783,0,0,1,.579,1.32,2.056,2.056,0,0,1-.639,1.46,1.958,1.958,0,0,1-1.438.66,2.522,2.522,0,0,1-1.517-.46,1.588,1.588,0,0,1-.639-1.38,1.977,1.977,0,0,1,.7-1.54A2.363,2.363,0,0,1,645.877,290.08Zm19.408,12.64q-1.478,1.8-3.195,3.74A30.821,30.821,0,0,1,658.4,310a20.031,20.031,0,0,1-4.233,2.64,11.27,11.27,0,0,1-4.771,1.04,4.927,4.927,0,0,1-3.675-1.3,5.231,5.231,0,0,1-1.277-3.82,7.155,7.155,0,0,1,1.118-3.76,12.864,12.864,0,0,1,2.875-3.28,15.409,15.409,0,0,1,3.873-2.32,10.693,10.693,0,0,1,4.114-.88,5.08,5.08,0,0,1,2.915.74,2.166,2.166,0,0,1,1.078,1.82,3.125,3.125,0,0,1-.3,1.38,3.22,3.22,0,0,1-.778,1.04,3.38,3.38,0,0,1-1.079.64,3.442,3.442,0,0,1-1.2.22,4.654,4.654,0,0,1-.918-0.08q0.279-.92.6-1.88a6.048,6.048,0,0,0,.319-1.92,1.684,1.684,0,0,0-.319-1.08,1.065,1.065,0,0,0-.878-0.4,4.6,4.6,0,0,0-2.356.82,10.482,10.482,0,0,0-2.476,2.2,13.41,13.41,0,0,0-1.957,3.16,8.936,8.936,0,0,0-.8,3.7,3.8,3.8,0,0,0,.919,2.58,3.2,3.2,0,0,0,2.555,1.06,7.931,7.931,0,0,0,3.894-1.08,20.8,20.8,0,0,0,3.674-2.62,34.186,34.186,0,0,0,3.175-3.2q1.437-1.659,2.436-2.86Zm9.365-17.52,4.392-.24q-3.394,5.4-6.708,10.7t-6.869,10.54l0.08,0.08q0.918-1.08,2.116-2.44a31.889,31.889,0,0,1,2.576-2.6,16.039,16.039,0,0,1,2.875-2.08,6.177,6.177,0,0,1,3.055-.84,2.522,2.522,0,0,1,1.9.68,2.374,2.374,0,0,1,.659,1.72,3.115,3.115,0,0,1-.459,1.74,3.985,3.985,0,0,1-1.339,1.22,11.093,11.093,0,0,1-2.135.94q-1.26.42-2.816,0.86v0.08a1.846,1.846,0,0,1,1.178.82,2.423,2.423,0,0,1,.5,1.42,6.244,6.244,0,0,1-.4,2.22,5.625,5.625,0,0,0-.4,1.98,0.6,0.6,0,0,0,.639.72,4.445,4.445,0,0,0,2.476-1.06,26.3,26.3,0,0,0,2.975-2.6q1.537-1.539,3-3.28t2.5-3.1l0.36,0.2q-1.239,1.56-2.756,3.44a40.221,40.221,0,0,1-3.2,3.52,19.644,19.644,0,0,1-3.474,2.74,6.837,6.837,0,0,1-3.593,1.1,2.406,2.406,0,0,1-1.9-.7,2.584,2.584,0,0,1-.618-1.78,5.976,5.976,0,0,1,.579-2.3q0.577-1.339,1.5-3.26-0.68.2-1.438,0.42a4.647,4.647,0,0,1-1.237.22,0.588,0.588,0,0,1-.719-0.6,0.614,0.614,0,0,1,.279-0.52,2.009,2.009,0,0,1,1.079-.2,7.853,7.853,0,0,1,1.277.12,7.2,7.2,0,0,0,1,.12,2.722,2.722,0,0,0,.878-0.24,4.765,4.765,0,0,0,1.2-.72,4.714,4.714,0,0,0,1.039-1.18,3.064,3.064,0,0,0,.439-1.66,1.945,1.945,0,0,0-.339-1.18,1.068,1.068,0,0,0-.9-0.46,3.653,3.653,0,0,0-1.976.74,17.33,17.33,0,0,0-2.316,1.92,32.086,32.086,0,0,0-2.436,2.66q-1.219,1.481-2.276,2.94t-1.9,2.76q-0.839,1.3-1.278,2.14l-3.873.12Zm35.14,13.6q-1.557,2.6-2.895,4.64t-2.3,3.62a29.054,29.054,0,0,0-1.5,2.74,4.96,4.96,0,0,0-.54,2.04,0.729,0.729,0,0,0,.759.88,2.689,2.689,0,0,0,1.158-.34,10.924,10.924,0,0,0,1.438-.88,17.664,17.664,0,0,0,1.557-1.26q0.8-.72,1.518-1.44,0.878-.92,1.737-1.86t1.6-1.82q0.738-.879,1.338-1.62t1-1.26l0.32,0.24q-0.958,1.281-2.436,3.06t-3.155,3.5a25.05,25.05,0,0,1-3.754,3.24,6.05,6.05,0,0,1-3.394,1.16,2.588,2.588,0,0,1-1.917-.72,2.445,2.445,0,0,1-.719-1.8,6.024,6.024,0,0,1,.14-1.36,3.088,3.088,0,0,1,.34-0.92l-0.08-.08q-0.72.761-1.558,1.62a15.487,15.487,0,0,1-1.8,1.58,10.27,10.27,0,0,1-2.056,1.2,5.87,5.87,0,0,1-2.376.48,2.284,2.284,0,0,1-1.877-.78,2.785,2.785,0,0,1-.639-1.82,10.143,10.143,0,0,1,1.637-4.4q1.636-2.88,4.432-7.48l4.234-.16q-3.156,4.84-5.132,7.94t-1.977,4.62a1.229,1.229,0,0,0,.26.8,0.851,0.851,0,0,0,.7.32,3.686,3.686,0,0,0,1.817-.64,13.7,13.7,0,0,0,2.216-1.72,24.583,24.583,0,0,0,2.3-2.48,25.765,25.765,0,0,0,2.056-2.92l3.434-5.6Zm15.507-7.84-9.225,14.08,0.08,0.08q0.838-1,1.777-2.2a18.859,18.859,0,0,1,2.037-2.22,11.46,11.46,0,0,1,2.356-1.7,5.661,5.661,0,0,1,2.735-.68,3.023,3.023,0,0,1,2.316.94,3.457,3.457,0,0,1,.878,2.46,8.54,8.54,0,0,1-.838,3.72,11.843,11.843,0,0,1-2.037,3.04l0.08,0.08a11.516,11.516,0,0,0,2.656-.9,16.336,16.336,0,0,0,2.5-1.48,19.06,19.06,0,0,0,2.236-1.88,24.039,24.039,0,0,0,1.877-2.06l0.28,0.28a23.381,23.381,0,0,1-1.8,2,20.9,20.9,0,0,1-2.3,1.98,15.6,15.6,0,0,1-2.755,1.64,12.193,12.193,0,0,1-3.175.98q-0.8.72-1.8,1.52a19.825,19.825,0,0,1-2.116,1.48,13.752,13.752,0,0,1-2.277,1.12,6.388,6.388,0,0,1-2.276.44,2.985,2.985,0,0,1-1.457-.34,1.2,1.2,0,0,1-.619-1.14,1.6,1.6,0,0,1,.818-1.38,7.334,7.334,0,0,1,1.977-.88,19.4,19.4,0,0,1,2.416-.54q1.259-.2,2.1-0.32,0.36-.48.819-1.22a14.856,14.856,0,0,0,.879-1.66,12.368,12.368,0,0,0,.7-1.98,8.567,8.567,0,0,0,.279-2.18,6.078,6.078,0,0,0-.06-0.86,2.334,2.334,0,0,0-.239-0.76,1.41,1.41,0,0,0-.5-0.54,1.569,1.569,0,0,0-.839-0.2,4.408,4.408,0,0,0-2.795,1.56,32.1,32.1,0,0,0-3.395,4.02q-1.8,2.46-3.654,5.48t-3.574,5.92q-1.716,2.9-3.134,5.36t-2.337,3.82l-4.232.16q5.351-8.64,10.682-17.4t10.642-17.44Zm-9.345,21.12a0.9,0.9,0,0,0,1.118.88,2.353,2.353,0,0,0,1.178-.36,8.744,8.744,0,0,0,1.218-.86,10.669,10.669,0,0,0,1.119-1.08c0.345-.386.639-0.74,0.878-1.06q-0.519.081-1.457,0.24a16.783,16.783,0,0,0-1.837.42,5.621,5.621,0,0,0-1.558.7A1.31,1.31,0,0,0,715.952,312.08Z" transform="translate(-598 -283)"/>
</svg>
