<svg xmlns="http://www.w3.org/2000/svg" width="106" height="26.97" viewBox="0 0 106 26.97">
  <defs>
    <style>
      .cls-1 {
        fill: #ee9c70;
        fill-rule: evenodd;
      }
    </style>
  </defs>
  <path id="search_search_title.svg" data-name="search/search_title.svg" class="cls-1" d="M769,2697.84a5.149,5.149,0,0,1,.179-1.35,3.8,3.8,0,0,1,.559-1.19,2.912,2.912,0,0,1,.938-0.84,2.745,2.745,0,0,1,1.316-.31,2.228,2.228,0,0,1,1.315.42,1.41,1.41,0,0,1,.6,1.23,1.778,1.778,0,0,1-.7,1.51,2.784,2.784,0,0,1-1.6.57,4.473,4.473,0,0,0-.234,1.02,9.728,9.728,0,0,0-.055,1.03,3.613,3.613,0,0,0,.595,2.1,4.474,4.474,0,0,0,1.514,1.37,7.365,7.365,0,0,0,2.038.75,10.791,10.791,0,0,0,2.127.23,6.6,6.6,0,0,0,5.372-2.43,9.709,9.709,0,0,0,1.531-2.54,17.241,17.241,0,0,0,.938-2.99,25.84,25.84,0,0,0,.486-3.16c0.1-1.06.168-2.06,0.217-2.98a23.427,23.427,0,0,1,.685-4.79,12.658,12.658,0,0,1,1.712-3.96,8.455,8.455,0,0,1,2.848-2.69,8.04,8.04,0,0,1,4.092-.99,9.8,9.8,0,0,1,1.965.2,4.882,4.882,0,0,1,1.676.68,3.923,3.923,0,0,1,1.172,1.19,3.23,3.23,0,0,1,.45,1.77,2.941,2.941,0,0,1-.342,1.48,2.63,2.63,0,0,1-.9.95,4.2,4.2,0,0,1-1.3.51,7.017,7.017,0,0,1-1.532.17,8.362,8.362,0,0,0,.775-1.65,5.664,5.664,0,0,0,.27-1.82,3.2,3.2,0,0,0-.739-2.22,2.5,2.5,0,0,0-1.929-.82,3.708,3.708,0,0,0-2.325.7,5.4,5.4,0,0,0-1.532,1.88,10.684,10.684,0,0,0-.937,2.78q-0.326,1.59-.541,3.36t-0.361,3.63c-0.1,1.25-.216,2.46-0.36,3.66a15.546,15.546,0,0,1-.83,3.4,10.991,10.991,0,0,1-1.982,3.41,10.5,10.5,0,0,1-3.479,2.65,11.9,11.9,0,0,1-5.318,1.06,11.412,11.412,0,0,1-3.064-.42,7.9,7.9,0,0,1-2.686-1.3,6.68,6.68,0,0,1-1.893-2.19A6.275,6.275,0,0,1,769,2697.84Zm40.171-3.18c-0.745,1.03-1.544,2.04-2.4,3.04a39.082,39.082,0,0,1-3.046,3.14,15.225,15.225,0,0,1-4.777,3.12,12.136,12.136,0,0,1-4.308.86,4.273,4.273,0,0,1-3.245-1.24,4.464,4.464,0,0,1-1.19-3.22,6.648,6.648,0,0,1,1.046-3.47,12.748,12.748,0,0,1,2.632-3.07,14.266,14.266,0,0,1,3.479-2.19,8.855,8.855,0,0,1,3.587-.84,4.194,4.194,0,0,1,2.415.6,1.963,1.963,0,0,1,.865,1.7,2.488,2.488,0,0,1-.6,1.61,6.1,6.1,0,0,1-1.531,1.32,11.644,11.644,0,0,1-2.11,1.02c-0.781.29-1.556,0.55-2.325,0.77s-1.49.4-2.163,0.54-1.226.27-1.658,0.37a5.563,5.563,0,0,0-.181,1.32,3.716,3.716,0,0,0,.866,2.55,3.035,3.035,0,0,0,2.415.99,7.505,7.505,0,0,0,3.335-.91,15.414,15.414,0,0,0,3.659-2.67c0.938-.9,1.839-1.85,2.7-2.83s1.622-1.91,2.271-2.76Zm-7.823-2.48a0.881,0.881,0,0,0-.27-0.73,1.061,1.061,0,0,0-.7-0.22,3.313,3.313,0,0,0-1.947.77,11.027,11.027,0,0,0-1.965,1.88,16.6,16.6,0,0,0-1.622,2.34,8.286,8.286,0,0,0-.919,2.13,10.686,10.686,0,0,0,2.812-.96,12.526,12.526,0,0,0,2.361-1.54,7.839,7.839,0,0,0,1.641-1.83A3.456,3.456,0,0,0,801.348,2692.18Zm17.95-.59,3.75-.22a15.4,15.4,0,0,1-.938,1.59q-0.614.945-1.334,2.01c-0.481.72-.967,1.47-1.46,2.23s-0.944,1.51-1.352,2.23a17.48,17.48,0,0,0-.992,2.01,4.363,4.363,0,0,0-.378,1.59,0.806,0.806,0,0,0,.9.92,4.691,4.691,0,0,0,2.344-1.03,20.921,20.921,0,0,0,3.1-2.7q0.684-.69,1.388-1.5t1.352-1.59c0.432-.52.829-1.01,1.19-1.46s0.649-.82.865-1.12l0.252,0.15c-0.625.85-1.346,1.8-2.163,2.83a39.756,39.756,0,0,1-2.956,3.31,21.641,21.641,0,0,1-3.407,2.87,6.013,6.013,0,0,1-3.335,1.11,2.485,2.485,0,0,1-1.784-.6,1.97,1.97,0,0,1-.631-1.48,3.908,3.908,0,0,1,.036-0.55,1.373,1.373,0,0,1,.108-0.4h-0.072a11.449,11.449,0,0,1-2.524,2.16,5.649,5.649,0,0,1-3.028.87,3.082,3.082,0,0,1-1.478-.33,2.683,2.683,0,0,1-.991-0.89,4.147,4.147,0,0,1-.559-1.28,6.059,6.059,0,0,1-.18-1.48,7.434,7.434,0,0,1,.973-3.58,13.581,13.581,0,0,1,2.452-3.24,12.6,12.6,0,0,1,3.3-2.33,7.851,7.851,0,0,1,3.479-.9,3.179,3.179,0,0,1,1.983.55,3.915,3.915,0,0,1,1.19,1.72Zm-10.816,9.36a4.526,4.526,0,0,0,.343,1.84,1.415,1.415,0,0,0,1.46.79,2.956,2.956,0,0,0,1.586-.64,9.244,9.244,0,0,0,1.605-1.52,17.327,17.327,0,0,0,1.478-2.02,20.772,20.772,0,0,0,1.225-2.25,17.411,17.411,0,0,0,.83-2.14,6.08,6.08,0,0,0,.306-1.7,2.756,2.756,0,0,0-.36-1.53,1.558,1.558,0,0,0-1.406-.55,3.236,3.236,0,0,0-1.677.51,7.434,7.434,0,0,0-1.622,1.35,16.051,16.051,0,0,0-1.478,1.88,15.439,15.439,0,0,0-1.208,2.14,14.678,14.678,0,0,0-.793,2.1A6.425,6.425,0,0,0,808.482,2700.95Zm12.965,3.29c1.225-2.14,2.469-4.28,3.731-6.4s2.517-4.27,3.768-6.47l4.109-.14-4.758,6.8,0.072,0.07a29.451,29.451,0,0,1,2.433-2.76c0.709-.69,1.328-1.26,1.857-1.7a13.48,13.48,0,0,1,1.334-1,5.368,5.368,0,0,0,.793-0.61,5.27,5.27,0,0,1,.739-0.64,2.456,2.456,0,0,1,.811-0.36,5.534,5.534,0,0,1,1.135-.17c0.445-.02,1-0.05,1.677-0.07a22.032,22.032,0,0,0-1.262,2.06,4.875,4.875,0,0,0-.577,2.33,1.382,1.382,0,0,0,1.55,1.57,2.5,2.5,0,0,0,.992-0.22,4.882,4.882,0,0,0,.919-0.55,10.349,10.349,0,0,0,.829-0.71q0.4-.39.722-0.72l0.144,0.19a8.6,8.6,0,0,1-2.38,2.08,5.767,5.767,0,0,1-2.992.8,3.219,3.219,0,0,1-2.271-.76,2.953,2.953,0,0,1-.829-2.27,3.254,3.254,0,0,1,.541-1.79l-0.073-.07a20.154,20.154,0,0,0-2.884,2.37,29.349,29.349,0,0,0-2.542,2.85,35.757,35.757,0,0,0-2.163,3.09q-0.991,1.59-1.784,3.09Zm35.878-9.43q-1.335,1.65-2.884,3.42a27.749,27.749,0,0,1-3.335,3.23,17.735,17.735,0,0,1-3.821,2.41,9.978,9.978,0,0,1-4.309.95,4.419,4.419,0,0,1-3.317-1.18,4.847,4.847,0,0,1-1.153-3.5,6.6,6.6,0,0,1,1.01-3.43,11.784,11.784,0,0,1,2.6-3,14.2,14.2,0,0,1,3.5-2.12,9.644,9.644,0,0,1,3.714-.8,4.545,4.545,0,0,1,2.631.68,1.972,1.972,0,0,1,.973,1.66,2.906,2.906,0,0,1-.27,1.26,2.957,2.957,0,0,1-.7.95,2.907,2.907,0,0,1-.973.58,2.971,2.971,0,0,1-1.082.21,4.075,4.075,0,0,1-.829-0.08c0.168-.56.348-1.13,0.541-1.72a5.523,5.523,0,0,0,.288-1.75,1.582,1.582,0,0,0-.288-0.99,0.962,0.962,0,0,0-.793-0.36,4.117,4.117,0,0,0-2.128.75,9.546,9.546,0,0,0-2.235,2.01,12.308,12.308,0,0,0-1.766,2.88,8.3,8.3,0,0,0-.721,3.38,3.489,3.489,0,0,0,.829,2.36,2.861,2.861,0,0,0,2.307.97,7.073,7.073,0,0,0,3.515-.99,18.261,18.261,0,0,0,3.317-2.39,31.34,31.34,0,0,0,2.866-2.92c0.865-1.01,1.6-1.89,2.2-2.62Zm-6.734,9.43,15.105-25.25,3.929-.19-11.969,19.15,0.073,0.08c0.528-.64,1.123-1.37,1.784-2.22a22.021,22.021,0,0,1,2.163-2.37,13.765,13.765,0,0,1,2.469-1.88,5.261,5.261,0,0,1,2.7-.77,2.555,2.555,0,0,1,1.8.6,2.371,2.371,0,0,1,.649,1.81,4.728,4.728,0,0,1-.793,2.32c-0.529.89-1.106,1.8-1.731,2.72s-1.2,1.82-1.73,2.67a4.367,4.367,0,0,0-.794,2.16,0.732,0.732,0,0,0,.758.88,2.777,2.777,0,0,0,1.369-.53,15.569,15.569,0,0,0,1.785-1.37c0.637-.56,1.286-1.2,1.947-1.91s1.3-1.4,1.911-2.1,1.159-1.34,1.64-1.95,0.853-1.1,1.118-1.46l0.216,0.22q-0.937,1.23-2.253,2.85c-0.878,1.07-1.8,2.1-2.758,3.1a19.5,19.5,0,0,1-3.317,2.93,5.184,5.184,0,0,1-2.812.87,2.244,2.244,0,0,1-1.892-.76,2.813,2.813,0,0,1-.6-1.76,4.884,4.884,0,0,1,.794-2.57,29.084,29.084,0,0,1,1.73-2.54q0.938-1.245,1.731-2.34a3.455,3.455,0,0,0,.793-1.9,1.041,1.041,0,0,0-.289-0.79,0.926,0.926,0,0,0-.649-0.27,3.264,3.264,0,0,0-1.784.67,15.512,15.512,0,0,0-2.091,1.76,27.037,27.037,0,0,0-2.2,2.45c-0.734.91-1.43,1.82-2.091,2.74s-1.25,1.79-1.767,2.65-0.931,1.58-1.243,2.19Z" transform="translate(-769 -2677.84)"/>
</svg>
