<svg xmlns="http://www.w3.org/2000/svg" width="269.031" height="27.81" viewBox="0 0 269.031 27.81">
  <defs>
    <style>
      .cls-1 {
        fill: #999;
        fill-rule: evenodd;
      }
    </style>
  </defs>
  <path id="footer_footer_logo.svg" data-name="footer/footer_logo.svg" class="cls-1" d="M728.473,2964.24a3.44,3.44,0,0,1,.518.84,3.067,3.067,0,0,1,.23,1.26,3.567,3.567,0,0,1-.417,1.61,4.774,4.774,0,0,1-1.195,1.48,6.412,6.412,0,0,1-1.871,1.08,6.7,6.7,0,0,1-2.418.42,3.927,3.927,0,0,1-2.763-.97,3.371,3.371,0,0,1-1.065-2.64,4.254,4.254,0,0,1,.762-2.49,7.063,7.063,0,0,1,2.073-1.92,13.961,13.961,0,0,1,3.008-1.4,29.317,29.317,0,0,1,3.569-.95q1.872-.375,3.8-0.6c1.286-.15,2.5-0.26,3.656-0.34s2.2-.12,3.152-0.14,1.713-.02,2.289-0.02a4.619,4.619,0,0,0,.849-0.09c0.317-.06.633-0.12,0.95-0.19s0.619-.14.907-0.2a3.537,3.537,0,0,1,.72-0.08c0.575,0,.863.16,0.863,0.5a0.422,0.422,0,0,1-.417.35,4.038,4.038,0,0,1-.85.1q-0.345,0-.806-0.03t-0.978-.03H743.01a4.111,4.111,0,0,0-.993.2,6.556,6.556,0,0,0-1.54.72,13.026,13.026,0,0,0-3.8,3.75,35.6,35.6,0,0,0-1.929,3.15q-0.921,1.695-1.943,3.39a35.575,35.575,0,0,1-2.216,3.26,14.748,14.748,0,0,1-2.749,2.77,13.074,13.074,0,0,1-3.527,1.92,13.519,13.519,0,0,1-4.562.71,6.8,6.8,0,0,1-1.857-.24,4.757,4.757,0,0,1-1.468-.65,3.1,3.1,0,0,1-.965-1.02,2.665,2.665,0,0,1-.345-1.33,2.332,2.332,0,0,1,.518-1.53,1.862,1.862,0,0,1,1.526-.63,2.1,2.1,0,0,1,1.209.38,1.231,1.231,0,0,1,.547,1.08,1.844,1.844,0,0,1-.231.93,1.171,1.171,0,0,1-.777.55,0.461,0.461,0,0,1-.014.11,0.7,0.7,0,0,0-.015.17,1.708,1.708,0,0,0,.591,1.37,2.159,2.159,0,0,0,1.54.48,5.284,5.284,0,0,0,2.993-.93,11.073,11.073,0,0,0,2.49-2.45,31.962,31.962,0,0,0,2.419-3.69q1.222-2.145,2.72-4.66a16.048,16.048,0,0,1,2.547-3.3,15.744,15.744,0,0,1,2.879-2.28,15.2,15.2,0,0,1,2.936-1.43,16.515,16.515,0,0,1,2.721-.74v-0.06a51.206,51.206,0,0,0-9.126.73,24.416,24.416,0,0,0-5.944,1.79,8.383,8.383,0,0,0-3.239,2.46,4.687,4.687,0,0,0-.978,2.72,2.291,2.291,0,0,0,.719,1.76,2.543,2.543,0,0,0,1.814.67,3.621,3.621,0,0,0,1.526-.33,4.578,4.578,0,0,0,1.252-.86,3.805,3.805,0,0,0,.835-1.17,3.085,3.085,0,0,0,.3-1.28,3.128,3.128,0,0,0-.662-1.93Zm18.423,8.01c-0.614.84-1.257,1.66-1.929,2.47a29.232,29.232,0,0,1-2.1,2.28,11.771,11.771,0,0,1-2.692,1.98,6.784,6.784,0,0,1-3.094.68,3.184,3.184,0,0,1-2.13-.66,2.418,2.418,0,0,1-.777-1.97,4.075,4.075,0,0,1,.4-1.69c0.269-.59.562-1.17,0.878-1.75s0.605-1.13.864-1.67a3.287,3.287,0,0,0,.389-1.41,1.29,1.29,0,0,0-.49-1.13,2.186,2.186,0,0,0-1.324-.35,1.347,1.347,0,0,1-.3-0.03,0.142,0.142,0,0,1-.13-0.14c0-.11.105-0.17,0.317-0.17a11.263,11.263,0,0,0,2.116-.18,5.79,5.79,0,0,0,1.813-.7,9.611,9.611,0,0,0,1.8-1.44,24.254,24.254,0,0,0,2.043-2.41,14.072,14.072,0,0,1,2.131-2.25,11.568,11.568,0,0,1,2.187-1.46,9.578,9.578,0,0,1,2.188-.78,9.682,9.682,0,0,1,2.073-.24,4.2,4.2,0,0,1,2.231.55,1.781,1.781,0,0,1,.906,1.63,1.937,1.937,0,0,1-.316,1.1,2.646,2.646,0,0,1-.806.77,4.7,4.7,0,0,1-2.217.6,11.538,11.538,0,0,0,.561-1.37,4.453,4.453,0,0,0,.245-1.4c0-1.03-.327-1.54-0.979-1.54a1.564,1.564,0,0,0-1.122.5,8.817,8.817,0,0,0-1.065,1.3q-0.548.8-1.181,1.77a17.071,17.071,0,0,1-1.439,1.88,11.6,11.6,0,0,1-1.9,1.75,8.908,8.908,0,0,1-2.1,1.12,13.766,13.766,0,0,1-2.577.68c-0.949.15-2.048,0.29-3.3,0.4v0.06c0.442,0.22.864,0.45,1.267,0.7a5.1,5.1,0,0,1,1.08.85,4.124,4.124,0,0,1,.762,1.11,3.3,3.3,0,0,1,.288,1.42,3.826,3.826,0,0,1-.216,1.23c-0.144.43-.3,0.86-0.475,1.28s-0.331.82-.475,1.2a2.864,2.864,0,0,0-.216.99,1.118,1.118,0,0,0,.231.75,0.923,0.923,0,0,0,.719.26,3.551,3.551,0,0,0,1.843-.66,12.127,12.127,0,0,0,2.216-1.86,24.813,24.813,0,0,0,1.886-2.12q0.906-1.155,1.655-2.13Zm4.577-2.89c-0.615.95-1.219,1.88-1.814,2.77s-1.122,1.73-1.583,2.51a22.75,22.75,0,0,0-1.108,2.06,3.616,3.616,0,0,0-.417,1.42,1.376,1.376,0,0,0,.144.66,0.533,0.533,0,0,0,.518.27,2.485,2.485,0,0,0,1.252-.41,9.807,9.807,0,0,0,1.4-1.04,15.951,15.951,0,0,0,1.439-1.42c0.48-.53.931-1.06,1.353-1.57s0.8-1,1.137-1.45,0.609-.83.821-1.11l0.23,0.08q-0.692.96-1.727,2.31a25.521,25.521,0,0,1-2.332,2.65,14.248,14.248,0,0,1-2.447,2,4.678,4.678,0,0,1-2.5.68,2.332,2.332,0,0,1-1.785-.65,2.618,2.618,0,0,1-.6-1.84,6.634,6.634,0,0,1,1.108-3.15c0.739-1.25,1.674-2.81,2.807-4.66Zm-1.468-4.36a1.867,1.867,0,0,1,.59-1.39,2.066,2.066,0,0,1,2.85,0,1.871,1.871,0,0,1,.59,1.39,1.849,1.849,0,0,1-.59,1.38,2.041,2.041,0,0,1-2.85,0A1.846,1.846,0,0,1,750.005,2965Zm-0.605,14.44,5.815-9.97,4.145-.11-4.4,6.33,0.058,0.05a27.766,27.766,0,0,1,2.95-3.55,7.925,7.925,0,0,1,2.4-1.76,7.435,7.435,0,0,1,.72-0.76,2.248,2.248,0,0,1,.82-0.45,6.261,6.261,0,0,1,1.353-.24q0.849-.06,2.317-0.12a8.682,8.682,0,0,0-.691.75,7.47,7.47,0,0,0-.633.9,5.741,5.741,0,0,0-.475.98,2.807,2.807,0,0,0-.187.98,2.073,2.073,0,0,0,.3,1.09,1.03,1.03,0,0,0,.964.5,2.231,2.231,0,0,0,.864-0.18,4.364,4.364,0,0,0,.835-0.47,6.994,6.994,0,0,0,.763-0.66c0.24-.24.455-0.48,0.647-0.7l0.2,0.17q-0.2.225-.576,0.66a5.366,5.366,0,0,1-.993.85,6.535,6.535,0,0,1-1.526.74,6.382,6.382,0,0,1-2.173.32,3.677,3.677,0,0,1-1.267-.21,3.139,3.139,0,0,1-.964-0.54,2.487,2.487,0,0,1-.6-0.79,2.147,2.147,0,0,1-.216-0.95,3.017,3.017,0,0,1,.23-1.31v-0.06a7.88,7.88,0,0,0-1.885,1.48,25.131,25.131,0,0,0-1.987,2.28c-0.643.83-1.228,1.66-1.756,2.5a20.8,20.8,0,0,0-1.194,2.08Zm31.665-10.08c-0.211.3-.485,0.68-0.82,1.15s-0.7.97-1.08,1.51-0.768,1.11-1.151,1.69-0.734,1.17-1.051,1.73a14.824,14.824,0,0,0-.777,1.56,3.365,3.365,0,0,0-.3,1.23,0.663,0.663,0,0,0,.662.82,2.689,2.689,0,0,0,1.424-.56,15.639,15.639,0,0,0,1.8-1.5c0.652-.63,1.333-1.36,2.044-2.2s1.429-1.72,2.159-2.66l0.172,0.12c-0.768.95-1.516,1.88-2.245,2.78a26.487,26.487,0,0,1-2.173,2.41,11.806,11.806,0,0,1-2.16,1.69,4.235,4.235,0,0,1-2.2.64,3.027,3.027,0,0,1-1.5-.3,2.058,2.058,0,0,1-.763-0.77,2.5,2.5,0,0,1-.288-0.97c-0.029-.33-0.043-0.63-0.043-0.89l-0.087-.06c-0.307.35-.638,0.71-0.993,1.06a7.951,7.951,0,0,1-1.166.97,6.522,6.522,0,0,1-1.324.7,3.989,3.989,0,0,1-1.468.26,2.642,2.642,0,0,1-2.087-.79,3.833,3.833,0,0,1-.7-2.56,5.779,5.779,0,0,1,.633-2.54,8.006,8.006,0,0,1,1.8-2.38,9.826,9.826,0,0,1,2.778-1.77,8.74,8.74,0,0,1,3.541-.7,2.45,2.45,0,0,1,1.712.54,2.544,2.544,0,0,1,.763,1.36h0.058l0.749-1.46Zm-11.428,9.18a2.807,2.807,0,0,0,1.554-.75,11.914,11.914,0,0,0,1.871-1.93,13.857,13.857,0,0,0,1.584-2.57,6.109,6.109,0,0,0,.662-2.64,1.2,1.2,0,0,0-.389-0.97,1.363,1.363,0,0,0-.878-0.32,2.282,2.282,0,0,0-1.223.39,6.4,6.4,0,0,0-1.209,1.05,11.93,11.93,0,0,0-1.123,1.49,14.385,14.385,0,0,0-.935,1.68,10.442,10.442,0,0,0-.634,1.69,5.69,5.69,0,0,0-.23,1.48,2.481,2.481,0,0,0,.187.94A0.736,0.736,0,0,0,769.637,2978.54Zm16.811,0.9c0.115-.19.321-0.51,0.619-0.97s0.633-.98,1.008-1.56,0.767-1.21,1.18-1.87,0.787-1.27,1.123-1.86,0.613-1.1.834-1.55a2.672,2.672,0,0,0,.331-0.95,0.639,0.639,0,0,0-.748-0.7,2.227,2.227,0,0,0-1.166.5,13.381,13.381,0,0,0-1.54,1.33c-0.557.55-1.133,1.17-1.727,1.85s-1.157,1.37-1.684,2.06-1,1.34-1.425,1.97a18.3,18.3,0,0,0-.979,1.58l-3.886.17q1.381-2.49,3.022-5.03,1.643-2.52,2.966-4.94l4.145-.11-3.829,5.46,0.058,0.06q0.6-.735,1.41-1.74a17.472,17.472,0,0,1,1.8-1.92,11.548,11.548,0,0,1,2.159-1.55,4.954,4.954,0,0,1,2.433-.64,2.538,2.538,0,0,1,1.641.51,1.877,1.877,0,0,1,.633,1.53,3.363,3.363,0,0,1-.144,1.05,5.667,5.667,0,0,1-.4.91l0.057,0.06q0.519-.57,1.166-1.26a14.939,14.939,0,0,1,1.4-1.33,8.084,8.084,0,0,1,1.583-1.05,3.8,3.8,0,0,1,1.727-.42,2.673,2.673,0,0,1,1.7.54,1.9,1.9,0,0,1,.691,1.58,3.952,3.952,0,0,1-.6,2.01,22.009,22.009,0,0,1-1.324,1.97c-0.48.63-.922,1.22-1.324,1.78a2.557,2.557,0,0,0-.605,1.41,0.764,0.764,0,0,0,.187.52,0.713,0.713,0,0,0,.561.21,2.488,2.488,0,0,0,1.253-.41,9.243,9.243,0,0,0,1.381-1.04,15.925,15.925,0,0,0,1.411-1.42c0.47-.53.916-1.06,1.338-1.57s0.807-.99,1.152-1.43,0.623-.79.835-1.05l0.2,0.17c-0.5.64-1.094,1.4-1.785,2.3a28.661,28.661,0,0,1-2.216,2.54,11.609,11.609,0,0,1-2.274,1.89,4.631,4.631,0,0,1-2.534.74,2.721,2.721,0,0,1-1.108-.21,1.966,1.966,0,0,1-.763-0.56,2.419,2.419,0,0,1-.431-0.77,2.536,2.536,0,0,1-.144-0.83,3.982,3.982,0,0,1,.575-2.01,16.529,16.529,0,0,1,1.267-1.87c0.461-.59.883-1.13,1.267-1.61a2.184,2.184,0,0,0,.575-1.2,0.671,0.671,0,0,0-.216-0.55,0.761,0.761,0,0,0-.5-0.18,2.074,2.074,0,0,0-1.152.52,13.427,13.427,0,0,0-1.511,1.33c-0.547.54-1.108,1.15-1.684,1.84s-1.118,1.38-1.626,2.07-0.97,1.35-1.382,1.96-0.734,1.14-.965,1.57Zm33.018-7.19q-0.663.915-1.483,1.86c-0.547.62-1.166,1.26-1.856,1.91a16.9,16.9,0,0,1-3.858,2.8,9,9,0,0,1-4.174.95,4.487,4.487,0,0,1-3.023-.89,3.265,3.265,0,0,1-1.036-2.6,5,5,0,0,1,.864-2.8,9.148,9.148,0,0,1,2.174-2.3,12.062,12.062,0,0,1,2.849-1.57,8.225,8.225,0,0,1,2.922-.58,5.194,5.194,0,0,1,2.274.43,1.465,1.465,0,0,1,.892,1.41,2.09,2.09,0,0,1-.978,1.71,9.777,9.777,0,0,1-2.318,1.25,22.56,22.56,0,0,1-2.691.84c-0.9.21-1.612,0.37-2.13,0.49a5.03,5.03,0,0,0-.087.56,5.38,5.38,0,0,0-.029.56,4.345,4.345,0,0,0,.116.99,2.2,2.2,0,0,0,.388.85,1.942,1.942,0,0,0,.72.59,2.445,2.445,0,0,0,1.108.22,5.6,5.6,0,0,0,2.908-.96,20.968,20.968,0,0,0,3.137-2.42,24.245,24.245,0,0,0,1.771-1.85q0.762-.9,1.281-1.62Zm-6.333-2.1a0.7,0.7,0,0,0-.806-0.79,2.178,2.178,0,0,0-1.368.63,8.412,8.412,0,0,0-1.353,1.51,13.928,13.928,0,0,0-1.079,1.81,6.135,6.135,0,0,0-.576,1.54,8.3,8.3,0,0,0,2.174-.77,7.654,7.654,0,0,0,1.64-1.16,4.735,4.735,0,0,0,1.022-1.37A3.3,3.3,0,0,0,813.133,2970.15Zm0.6,9.29q2.966-4.875,5.887-9.71t5.887-9.77l4.145-.28q-2.418,3.945-4.822,7.81t-4.879,7.58l0.058,0.06c0.518-.62,1.079-1.28,1.683-2a20.435,20.435,0,0,1,1.915-1.99,10.565,10.565,0,0,1,2.13-1.51,4.976,4.976,0,0,1,3.311-.51,2.3,2.3,0,0,1,.806.34,1.937,1.937,0,0,1,.561.6,1.686,1.686,0,0,1,.216.89,1.845,1.845,0,0,1-.691,1.49,5.282,5.282,0,0,1-1.627.89,11.378,11.378,0,0,1-1.914.46c-0.653.09-1.171,0.15-1.554,0.19v0.07l0.863,0.33a3.62,3.62,0,0,1,.777.41,2.184,2.184,0,0,1,.576.59,1.52,1.52,0,0,1,.231.86,1.937,1.937,0,0,1-.1.59q-0.1.3-.229,0.6c-0.087.2-.164,0.39-0.231,0.58a1.455,1.455,0,0,0-.1.5,0.456,0.456,0,0,0,.489.54,2.29,2.29,0,0,0,1.123-.38,10.61,10.61,0,0,0,1.352-.98,17.807,17.807,0,0,0,1.454-1.36c0.489-.5.955-1.02,1.4-1.54s0.845-1.02,1.209-1.5,0.663-.88.893-1.21l0.259,0.11q-0.692.975-1.727,2.28a26.6,26.6,0,0,1-2.3,2.53,17.455,17.455,0,0,1-1.555,1.37,7.141,7.141,0,0,1-1.324.84,5.473,5.473,0,0,1-1.223.44,6.137,6.137,0,0,1-1.224.12,3.484,3.484,0,0,1-1.972-.5,1.724,1.724,0,0,1-.762-1.54,2.282,2.282,0,0,1,.215-1.03,8.911,8.911,0,0,1,.475-0.83,8.02,8.02,0,0,0,.475-0.8,1.894,1.894,0,0,0,.216-0.91,6.437,6.437,0,0,1-.777.26,2.812,2.812,0,0,1-.806.12,0.641,0.641,0,0,1-.346-0.09,0.324,0.324,0,0,1-.143-0.31c0-.31.23-0.47,0.691-0.47a4.7,4.7,0,0,1,.806.07,2.85,2.85,0,0,0,.6.07,1.771,1.771,0,0,0,.878-0.26,4.081,4.081,0,0,0,.835-0.67,3.591,3.591,0,0,0,.633-0.9,2.2,2.2,0,0,0,.245-0.97,0.86,0.86,0,0,0-.2-0.57,0.709,0.709,0,0,0-.576-0.24,2.343,2.343,0,0,0-1.252.51,11.153,11.153,0,0,0-1.554,1.31c-0.547.54-1.1,1.15-1.655,1.82s-1.08,1.34-1.569,2.02-0.926,1.31-1.31,1.91-0.681,1.11-.892,1.5Zm25.706-10.08c-0.615.95-1.219,1.88-1.814,2.77s-1.122,1.73-1.583,2.51a22.75,22.75,0,0,0-1.108,2.06,3.6,3.6,0,0,0-.417,1.42,1.388,1.388,0,0,0,.143.66,0.536,0.536,0,0,0,.519.27,2.485,2.485,0,0,0,1.252-.41,9.864,9.864,0,0,0,1.4-1.04,16.082,16.082,0,0,0,1.439-1.42c0.48-.53.931-1.06,1.353-1.57s0.8-1,1.137-1.45,0.609-.83.821-1.11l0.23,0.08q-0.692.96-1.727,2.31a25.521,25.521,0,0,1-2.332,2.65,14.248,14.248,0,0,1-2.447,2,4.678,4.678,0,0,1-2.5.68,2.332,2.332,0,0,1-1.785-.65,2.618,2.618,0,0,1-.6-1.84,6.634,6.634,0,0,1,1.108-3.15c0.739-1.25,1.674-2.81,2.807-4.66Zm-1.468-4.36a1.867,1.867,0,0,1,.59-1.39,2.066,2.066,0,0,1,2.85,0,1.871,1.871,0,0,1,.59,1.39,1.849,1.849,0,0,1-.59,1.38,2.041,2.041,0,0,1-2.85,0A1.846,1.846,0,0,1,837.975,2965Zm20.52-.76a3.44,3.44,0,0,1,.518.84,3.067,3.067,0,0,1,.23,1.26,3.58,3.58,0,0,1-.417,1.61,4.774,4.774,0,0,1-1.2,1.48,6.412,6.412,0,0,1-1.871,1.08,6.7,6.7,0,0,1-2.418.42,3.93,3.93,0,0,1-2.764-.97,3.374,3.374,0,0,1-1.065-2.64,4.255,4.255,0,0,1,.763-2.49,7.05,7.05,0,0,1,2.073-1.92,13.938,13.938,0,0,1,3.008-1.4,29.268,29.268,0,0,1,3.569-.95q1.872-.375,3.8-0.6c1.285-.15,2.5-0.26,3.656-0.34s2.2-.12,3.152-0.14,1.713-.02,2.288-0.02a4.62,4.62,0,0,0,.85-0.09c0.317-.06.633-0.12,0.95-0.19s0.619-.14.907-0.2a3.522,3.522,0,0,1,.719-0.08c0.576,0,.864.16,0.864,0.5a0.424,0.424,0,0,1-.418.35,4.021,4.021,0,0,1-.849.1q-0.345,0-.806-0.03t-0.978-.03h-0.029a4.111,4.111,0,0,0-.993.2,6.542,6.542,0,0,0-1.541.72,13.058,13.058,0,0,0-3.8,3.75,35.831,35.831,0,0,0-1.928,3.15q-0.921,1.695-1.943,3.39a35.585,35.585,0,0,1-2.217,3.26,14.688,14.688,0,0,1-2.749,2.77,13.053,13.053,0,0,1-3.526,1.92,13.525,13.525,0,0,1-4.563.71,6.8,6.8,0,0,1-1.856-.24,4.773,4.773,0,0,1-1.469-.65,3.1,3.1,0,0,1-.964-1.02,2.665,2.665,0,0,1-.345-1.33,2.327,2.327,0,0,1,.518-1.53,1.859,1.859,0,0,1,1.525-.63,2.1,2.1,0,0,1,1.21.38,1.231,1.231,0,0,1,.547,1.08,1.854,1.854,0,0,1-.231.93,1.174,1.174,0,0,1-.777.55,0.461,0.461,0,0,1-.014.11,0.7,0.7,0,0,0-.015.17,1.711,1.711,0,0,0,.59,1.37,2.163,2.163,0,0,0,1.54.48,5.287,5.287,0,0,0,2.994-.93,11.093,11.093,0,0,0,2.49-2.45,31.964,31.964,0,0,0,2.418-3.69q1.224-2.145,2.721-4.66a16.048,16.048,0,0,1,2.547-3.3,15.71,15.71,0,0,1,2.879-2.28,15.2,15.2,0,0,1,2.936-1.43,16.532,16.532,0,0,1,2.72-.74v-0.06a51.2,51.2,0,0,0-9.125.73,24.425,24.425,0,0,0-5.945,1.79,8.386,8.386,0,0,0-3.238,2.46,4.681,4.681,0,0,0-.979,2.72,2.292,2.292,0,0,0,.72,1.76,2.543,2.543,0,0,0,1.814.67,3.613,3.613,0,0,0,1.525-.33,4.563,4.563,0,0,0,1.252-.86,3.772,3.772,0,0,0,.835-1.17,3.071,3.071,0,0,0,.3-1.28,3.128,3.128,0,0,0-.662-1.93Zm18.423,8.01c-0.615.84-1.257,1.66-1.929,2.47a29.232,29.232,0,0,1-2.1,2.28,11.793,11.793,0,0,1-2.692,1.98,6.784,6.784,0,0,1-3.094.68,3.189,3.189,0,0,1-2.131-.66,2.418,2.418,0,0,1-.777-1.97,4.061,4.061,0,0,1,.4-1.69c0.269-.59.562-1.17,0.878-1.75s0.605-1.13.864-1.67a3.287,3.287,0,0,0,.389-1.41,1.29,1.29,0,0,0-.49-1.13,2.19,2.19,0,0,0-1.324-.35,1.362,1.362,0,0,1-.3-0.03,0.142,0.142,0,0,1-.129-0.14c0-.11.105-0.17,0.317-0.17a11.263,11.263,0,0,0,2.116-.18,5.8,5.8,0,0,0,1.813-.7,9.575,9.575,0,0,0,1.8-1.44,24.248,24.248,0,0,0,2.044-2.41,14.113,14.113,0,0,1,2.13-2.25,11.573,11.573,0,0,1,2.188-1.46,9.561,9.561,0,0,1,2.188-.78,9.682,9.682,0,0,1,2.073-.24,4.2,4.2,0,0,1,2.23.55,1.78,1.78,0,0,1,.907,1.63,1.938,1.938,0,0,1-.317,1.1,2.624,2.624,0,0,1-.806.77,4.688,4.688,0,0,1-2.216.6,11.538,11.538,0,0,0,.561-1.37,4.453,4.453,0,0,0,.245-1.4c0-1.03-.327-1.54-0.979-1.54a1.568,1.568,0,0,0-1.123.5,8.946,8.946,0,0,0-1.065,1.3q-0.546.8-1.18,1.77a17.071,17.071,0,0,1-1.439,1.88,11.636,11.636,0,0,1-1.9,1.75,8.927,8.927,0,0,1-2.1,1.12,13.766,13.766,0,0,1-2.577.68c-0.95.15-2.049,0.29-3.3,0.4v0.06c0.442,0.22.864,0.45,1.267,0.7a5.1,5.1,0,0,1,1.079.85,4.1,4.1,0,0,1,.763,1.11,3.3,3.3,0,0,1,.288,1.42,3.826,3.826,0,0,1-.216,1.23c-0.144.43-.3,0.86-0.475,1.28s-0.331.82-.475,1.2a2.864,2.864,0,0,0-.216.99,1.118,1.118,0,0,0,.231.75,0.923,0.923,0,0,0,.719.26,3.554,3.554,0,0,0,1.843-.66,12.16,12.16,0,0,0,2.216-1.86,24.635,24.635,0,0,0,1.885-2.12q0.907-1.155,1.656-2.13Zm4.577-2.89c-0.615.95-1.219,1.88-1.814,2.77s-1.122,1.73-1.583,2.51a22.5,22.5,0,0,0-1.108,2.06,3.6,3.6,0,0,0-.418,1.42,1.388,1.388,0,0,0,.144.66,0.536,0.536,0,0,0,.519.27,2.487,2.487,0,0,0,1.252-.41,9.864,9.864,0,0,0,1.4-1.04,16.082,16.082,0,0,0,1.439-1.42c0.479-.53.931-1.06,1.353-1.57s0.8-1,1.137-1.45,0.609-.83.821-1.11l0.23,0.08q-0.692.96-1.727,2.31a25.639,25.639,0,0,1-2.332,2.65,14.286,14.286,0,0,1-2.447,2,4.678,4.678,0,0,1-2.5.68,2.332,2.332,0,0,1-1.785-.65,2.618,2.618,0,0,1-.605-1.84,6.638,6.638,0,0,1,1.109-3.15c0.738-1.25,1.674-2.81,2.806-4.66Zm-1.468-4.36a1.867,1.867,0,0,1,.59-1.39,2.066,2.066,0,0,1,2.85,0,1.871,1.871,0,0,1,.59,1.39,1.849,1.849,0,0,1-.59,1.38,2.041,2.041,0,0,1-2.85,0A1.846,1.846,0,0,1,880.027,2965Zm2.763,5.03,0.2-.44h2.389l2.447-4.06,4-.14-2.591,4.2h3.944l-0.23.44h-3.973q-0.4.675-1.108,1.77c-0.471.73-.935,1.48-1.4,2.26s-0.864,1.54-1.209,2.27a4.461,4.461,0,0,0-.519,1.79,0.851,0.851,0,0,0,.274.7,1.167,1.167,0,0,0,.763.23,3.646,3.646,0,0,0,1.583-.41,10.073,10.073,0,0,0,1.684-1.05,15.868,15.868,0,0,0,1.641-1.44c0.527-.53,1.026-1.06,1.5-1.58s0.9-1.01,1.281-1.47,0.691-.83.921-1.11l0.23,0.12q-0.978,1.11-2.072,2.46a23.879,23.879,0,0,1-2.361,2.5,12.594,12.594,0,0,1-2.735,1.93,6.7,6.7,0,0,1-3.195.77,2.579,2.579,0,0,1-1.972-.68,2.494,2.494,0,0,1-.647-1.78,3.891,3.891,0,0,1,.158-1.1,7.836,7.836,0,0,1,.561-1.35c0.269-.53.624-1.18,1.065-1.94s1.008-1.73,1.7-2.89H882.79Zm24.036,2.16q-1.122,1.395-2.288,2.73a20.461,20.461,0,0,1-2.692,2.53,11.829,11.829,0,0,1-2.893,1.71,9.061,9.061,0,0,1-3.44.61,6.012,6.012,0,0,1-1.525-.19,4.254,4.254,0,0,1-1.325-.59,2.949,2.949,0,0,1-.921-1.01,2.907,2.907,0,0,1-.345-1.45,5.6,5.6,0,0,1,.864-3.03,8.691,8.691,0,0,1,2.2-2.36,10.959,10.959,0,0,1,2.936-1.55,9.089,9.089,0,0,1,3.065-.56,4.728,4.728,0,0,1,2.246.46,1.486,1.486,0,0,1,.863,1.38,1.965,1.965,0,0,1-.259,1.03,2.261,2.261,0,0,1-.7.72,3.3,3.3,0,0,1-1.022.44,5.282,5.282,0,0,1-1.209.14h-0.23a5.011,5.011,0,0,0,.072-0.69c0.009-.25.014-0.56,0.014-0.94a4.817,4.817,0,0,0-.173-1.48,0.686,0.686,0,0,0-.719-0.5,2.033,2.033,0,0,0-1.324.67,9.054,9.054,0,0,0-1.368,1.66,11.006,11.006,0,0,0-1.079,2.16,6.171,6.171,0,0,0-.432,2.14,3.009,3.009,0,0,0,.619,1.96,2.268,2.268,0,0,0,1.857.75,5.157,5.157,0,0,0,2.706-.86,18.012,18.012,0,0,0,2.907-2.3,22.827,22.827,0,0,0,1.885-2c0.6-.72,1.1-1.31,1.483-1.78Zm-5.613,7.25q2.966-4.875,5.843-9.73c1.919-3.23,3.867-6.49,5.844-9.75l4.116-.28q-2.389,3.885-4.821,7.84t-4.879,7.52l0.057,0.06q0.661-.87,1.54-1.92a19.213,19.213,0,0,1,1.914-1.97,11.575,11.575,0,0,1,2.188-1.55,4.761,4.761,0,0,1,2.3-.63,2.8,2.8,0,0,1,1.655.49,1.836,1.836,0,0,1,.705,1.63,4,4,0,0,1-.59,2.03,17.682,17.682,0,0,1-1.309,1.96c-0.48.63-.917,1.22-1.31,1.78a2.658,2.658,0,0,0-.59,1.45,0.708,0.708,0,0,0,.158.49,0.572,0.572,0,0,0,.475.19,2.538,2.538,0,0,0,1.31-.47,9.79,9.79,0,0,0,1.5-1.16,18.77,18.77,0,0,0,1.511-1.55q0.748-.855,1.382-1.62c0.422-.52.787-0.97,1.094-1.37s0.527-.68.662-0.83l0.173,0.14c-0.327.39-.687,0.85-1.08,1.37s-0.825,1.07-1.3,1.64-0.965,1.12-1.483,1.66a16.748,16.748,0,0,1-1.6,1.47,7.7,7.7,0,0,1-1.7,1.05,4.33,4.33,0,0,1-1.77.39,2.21,2.21,0,0,1-.979-0.21,2.037,2.037,0,0,1-.72-0.56,2.3,2.3,0,0,1-.431-0.81,3.1,3.1,0,0,1-.144-0.93,3.822,3.822,0,0,1,.547-1.99,15.662,15.662,0,0,1,1.194-1.75c0.432-.55.825-1.06,1.18-1.54a2.262,2.262,0,0,0,.533-1.3,0.6,0.6,0,0,0-.662-0.7,2.456,2.456,0,0,0-1.252.46,10.764,10.764,0,0,0-1.555,1.23,23.508,23.508,0,0,0-1.669,1.75c-0.567.65-1.109,1.33-1.627,2.02s-0.993,1.36-1.425,2.02a18.969,18.969,0,0,0-1.05,1.81Zm33.334-7.19q-0.663.915-1.482,1.86c-0.547.62-1.166,1.26-1.857,1.91a16.88,16.88,0,0,1-3.858,2.8,9,9,0,0,1-4.174.95,4.482,4.482,0,0,1-3.022-.89,3.262,3.262,0,0,1-1.037-2.6,5,5,0,0,1,.864-2.8,9.148,9.148,0,0,1,2.174-2.3,12.1,12.1,0,0,1,2.849-1.57,8.225,8.225,0,0,1,2.922-.58,5.194,5.194,0,0,1,2.274.43,1.466,1.466,0,0,1,.893,1.41,2.091,2.091,0,0,1-.979,1.71,9.777,9.777,0,0,1-2.318,1.25,22.56,22.56,0,0,1-2.691.84c-0.9.21-1.612,0.37-2.13,0.49a4.807,4.807,0,0,0-.086.56,5.118,5.118,0,0,0-.029.56,4.343,4.343,0,0,0,.115.99,2.2,2.2,0,0,0,.388.85,1.958,1.958,0,0,0,.72.59,2.452,2.452,0,0,0,1.109.22,5.6,5.6,0,0,0,2.907-.96,21.025,21.025,0,0,0,3.138-2.42,24.417,24.417,0,0,0,1.77-1.85q0.762-.9,1.281-1.62Zm-6.333-2.1a0.7,0.7,0,0,0-.806-0.79,2.175,2.175,0,0,0-1.367.63,8.337,8.337,0,0,0-1.353,1.51,13.936,13.936,0,0,0-1.08,1.81,6.087,6.087,0,0,0-.575,1.54,8.284,8.284,0,0,0,2.173-.77,7.687,7.687,0,0,0,1.641-1.16,4.771,4.771,0,0,0,1.022-1.37A3.309,3.309,0,0,0,928.214,2970.15Zm0.72,9.29,5.959-9.91,4.087-.17q-2.073,2.8-3.973,5.71l0.058,0.06c0.5-.62,1.055-1.28,1.67-1.99a20.332,20.332,0,0,1,1.943-1.97,12.223,12.223,0,0,1,2.1-1.53,4.3,4.3,0,0,1,2.145-.61,3,3,0,0,1,1.828.54,1.953,1.953,0,0,1,.734,1.67,3.686,3.686,0,0,1-.59,1.9,22.113,22.113,0,0,1-1.31,1.92c-0.48.62-.917,1.22-1.31,1.79a2.762,2.762,0,0,0-.59,1.5,0.808,0.808,0,0,0,.158.49,0.59,0.59,0,0,0,.5.21,2.541,2.541,0,0,0,1.439-.58,14.156,14.156,0,0,0,1.67-1.41c0.441-.43.883-0.89,1.324-1.39s0.854-.97,1.238-1.42,0.729-.88,1.036-1.26,0.547-.69.72-0.91l0.259,0.14c-0.653.84-1.349,1.7-2.087,2.6a32,32,0,0,1-2.231,2.46,11.867,11.867,0,0,1-2.288,1.84,4.457,4.457,0,0,1-2.26.65,2.423,2.423,0,0,1-1.943-.74,2.788,2.788,0,0,1-.648-1.91,3.568,3.568,0,0,1,.561-1.92,12.775,12.775,0,0,1,1.253-1.71q0.69-.795,1.252-1.47a2.034,2.034,0,0,0,.561-1.26,0.688,0.688,0,0,0-.777-0.78,2.355,2.355,0,0,0-1.267.52,12.32,12.32,0,0,0-1.612,1.35c-0.576.56-1.161,1.19-1.756,1.88s-1.156,1.38-1.684,2.07-0.988,1.34-1.382,1.96a15.6,15.6,0,0,0-.877,1.51ZM712.055,2954.6c-4.784,2.38-8.24,8.44-10.313,15.3-0.225.75-.225,0.74-0.225,0.74a1.994,1.994,0,0,1-1.949,1.52H682.017a1.046,1.046,0,0,0-.782.35,0.987,0.987,0,0,0-.228.81s-0.063-.15.059,0.34a11.072,11.072,0,0,0,21.659-1.5c0.776-3.69,6.819-10.35,12.559-11.86C720.428,2959.02,717.438,2951.93,712.055,2954.6Zm-27.72,16.5a1.1,1.1,0,1,0-1.124-1.1A1.11,1.11,0,0,0,684.335,2971.1Zm4.066-2.19a1.1,1.1,0,1,1-1.123,1.09A1.108,1.108,0,0,1,688.4,2968.91Zm4.066,2.19a1.1,1.1,0,1,0-1.124-1.1A1.11,1.11,0,0,0,692.467,2971.1Zm4.066-2.19a1.1,1.1,0,1,1-1.123,1.09A1.108,1.108,0,0,1,696.533,2968.91Zm-10.164-.31a1.1,1.1,0,1,0-1.125-1.09A1.109,1.109,0,0,0,686.369,2968.6Zm4.065,0a1.1,1.1,0,1,0-1.124-1.09A1.108,1.108,0,0,0,690.434,2968.6Zm4.066,0a1.1,1.1,0,1,0-1.124-1.09A1.108,1.108,0,0,0,694.5,2968.6Zm-6.1-2.5a1.09,1.09,0,1,0-1.123-1.09A1.108,1.108,0,0,0,688.4,2966.1Zm4.066,0a1.091,1.091,0,1,0-1.124-1.09A1.108,1.108,0,0,0,692.467,2966.1Zm-2.033-2.5a1.091,1.091,0,1,0-1.124-1.09A1.1,1.1,0,0,0,690.434,2963.6Z" transform="translate(-681 -2954)"/>
</svg>
